M48
; DRILL file KiCad 10.0.1 date 2026-05-30T20:53:13
; FORMAT={-:-/ absolute / metric / decimal}
; #@! TF.CreationDate,2026-05-30T20:53:13+07:00
; #@! TF.GenerationSoftware,Kicad,Pcbnew,10.0.1
; #@! TF.FileFunction,NonPlated,1,2,NPTH
FMAT,2
METRIC
; #@! TA.AperFunction,NonPlated,NPTH,ComponentDrill
T1C0.500
; #@! TA.AperFunction,NonPlated,NPTH,ComponentDrill
T2C1.700
; #@! TA.AperFunction,NonPlated,NPTH,ComponentDrill
T3C2.700
; #@! TA.AperFunction,NonPlated,NPTH,ComponentDrill
T4C4.000
%
G90
G05
T1
X130.537Y-104.1
T2
X64.5Y-91.54
X64.5Y-110.54
X64.5Y-129.54
X64.5Y-148.54
X74.66Y-91.54
X74.66Y-110.54
X74.66Y-129.54
X74.66Y-148.54
X83.5Y-91.54
X83.5Y-110.54
X83.5Y-129.54
X83.5Y-148.54
X93.66Y-91.54
X93.66Y-110.54
X93.66Y-129.54
X93.66Y-148.54
X102.5Y-91.54
X102.5Y-110.54
X102.5Y-129.54
X102.5Y-148.54
X112.66Y-91.54
X112.66Y-110.54
X112.66Y-129.54
X112.66Y-148.54
T3
X57.6Y-50.0
X57.6Y-160.6
X100.0Y-79.8
X142.2Y-50.0
X142.2Y-160.6
T4
X69.58Y-91.54
X69.58Y-110.54
X69.58Y-129.54
X69.58Y-148.54
X88.58Y-91.54
X88.58Y-110.54
X88.58Y-129.54
X88.58Y-148.54
X107.58Y-91.54
X107.58Y-110.54
X107.58Y-129.54
X107.58Y-148.54
M30
