%TF.GenerationSoftware,KiCad,Pcbnew,10.0.1*%
%TF.CreationDate,2026-05-30T20:52:51+07:00*%
%TF.ProjectId,HSOD,48534f44-2e6b-4696-9361-645f70636258,rev?*%
%TF.SameCoordinates,Original*%
%TF.FileFunction,Soldermask,Bot*%
%TF.FilePolarity,Negative*%
%FSLAX46Y46*%
G04 Gerber Fmt 4.6, Leading zero omitted, Abs format (unit mm)*
G04 Created by KiCad (PCBNEW 10.0.1) date 2026-05-30 20:52:51*
%MOMM*%
%LPD*%
G01*
G04 APERTURE LIST*
G04 Aperture macros list*
%AMRoundRect*
0 Rectangle with rounded corners*
0 $1 Rounding radius*
0 $2 $3 $4 $5 $6 $7 $8 $9 X,Y pos of 4 corners*
0 Add a 4 corners polygon primitive as box body*
4,1,4,$2,$3,$4,$5,$6,$7,$8,$9,$2,$3,0*
0 Add four circle primitives for the rounded corners*
1,1,$1+$1,$2,$3*
1,1,$1+$1,$4,$5*
1,1,$1+$1,$6,$7*
1,1,$1+$1,$8,$9*
0 Add four rect primitives between the rounded corners*
20,1,$1+$1,$2,$3,$4,$5,0*
20,1,$1+$1,$4,$5,$6,$7,0*
20,1,$1+$1,$6,$7,$8,$9,0*
20,1,$1+$1,$8,$9,$2,$3,0*%
G04 Aperture macros list end*
%ADD10C,1.700000*%
%ADD11C,4.000000*%
%ADD12C,2.200000*%
%ADD13C,0.500000*%
%ADD14C,2.700000*%
%ADD15R,1.600000X1.600000*%
%ADD16O,1.600000X1.600000*%
%ADD17RoundRect,0.102000X-0.704000X-0.704000X0.704000X-0.704000X0.704000X0.704000X-0.704000X0.704000X0*%
%ADD18C,1.612000*%
%ADD19RoundRect,0.102000X-0.754000X-0.754000X0.754000X-0.754000X0.754000X0.754000X-0.754000X0.754000X0*%
%ADD20C,1.712000*%
%ADD21C,3.204000*%
%ADD22RoundRect,0.102000X0.654000X-0.654000X0.654000X0.654000X-0.654000X0.654000X-0.654000X-0.654000X0*%
%ADD23C,1.512000*%
%ADD24RoundRect,0.250000X-0.550000X0.550000X-0.550000X-0.550000X0.550000X-0.550000X0.550000X0.550000X0*%
%ADD25C,1.600000*%
G04 APERTURE END LIST*
D10*
%TO.C,SW8*%
X83500000Y-129540000D03*
D11*
X88580000Y-129540000D03*
D10*
X93660000Y-129540000D03*
D12*
X91120000Y-124460000D03*
X84770000Y-127000000D03*
%TD*%
D13*
%TO.C,MK2*%
X130537500Y-104100000D03*
%TD*%
D10*
%TO.C,SW9*%
X102500000Y-129540000D03*
D11*
X107580000Y-129540000D03*
D10*
X112660000Y-129540000D03*
D12*
X110120000Y-124460000D03*
X103770000Y-127000000D03*
%TD*%
D10*
%TO.C,SW3*%
X102500000Y-91540000D03*
D11*
X107580000Y-91540000D03*
D10*
X112660000Y-91540000D03*
D12*
X110120000Y-86460000D03*
X103770000Y-89000000D03*
%TD*%
D10*
%TO.C,SW4*%
X64500000Y-110540000D03*
D11*
X69580000Y-110540000D03*
D10*
X74660000Y-110540000D03*
D12*
X72120000Y-105460000D03*
X65770000Y-108000000D03*
%TD*%
D14*
%TO.C,REF\u002A\u002A*%
X100000000Y-79800000D03*
%TD*%
D10*
%TO.C,SW11*%
X83500000Y-148540000D03*
D11*
X88580000Y-148540000D03*
D10*
X93660000Y-148540000D03*
D12*
X91120000Y-143460000D03*
X84770000Y-146000000D03*
%TD*%
D10*
%TO.C,SW6*%
X102500000Y-110540000D03*
D11*
X107580000Y-110540000D03*
D10*
X112660000Y-110540000D03*
D12*
X110120000Y-105460000D03*
X103770000Y-108000000D03*
%TD*%
D10*
%TO.C,SW12*%
X102500000Y-148540000D03*
D11*
X107580000Y-148540000D03*
D10*
X112660000Y-148540000D03*
D12*
X110120000Y-143460000D03*
X103770000Y-146000000D03*
%TD*%
D10*
%TO.C,SW7*%
X64500000Y-129540000D03*
D11*
X69580000Y-129540000D03*
D10*
X74660000Y-129540000D03*
D12*
X72120000Y-124460000D03*
X65770000Y-127000000D03*
%TD*%
D15*
%TO.C,A1*%
X122840000Y-118440000D03*
D16*
X122840000Y-120980000D03*
X122840000Y-123520000D03*
X122840000Y-126060000D03*
X122840000Y-128600000D03*
X122840000Y-131140000D03*
X122840000Y-133680000D03*
X122840000Y-136220000D03*
X122840000Y-138760000D03*
X122840000Y-141300000D03*
X122840000Y-143840000D03*
X122840000Y-146380000D03*
X122840000Y-148920000D03*
X122840000Y-151460000D03*
X122840000Y-154000000D03*
X138080000Y-154000000D03*
X138080000Y-151460000D03*
X138080000Y-148920000D03*
X138080000Y-146380000D03*
X138080000Y-143840000D03*
X138080000Y-141300000D03*
X138080000Y-138760000D03*
X138080000Y-136220000D03*
X138080000Y-133680000D03*
X138080000Y-131140000D03*
X138080000Y-128600000D03*
X138080000Y-126060000D03*
X138080000Y-123520000D03*
X138080000Y-120980000D03*
X138080000Y-118440000D03*
%TD*%
D10*
%TO.C,SW10*%
X64500000Y-148540000D03*
D11*
X69580000Y-148540000D03*
D10*
X74660000Y-148540000D03*
D12*
X72120000Y-143460000D03*
X65770000Y-146000000D03*
%TD*%
D14*
%TO.C,REF\u002A\u002A*%
X57600000Y-160600000D03*
%TD*%
D10*
%TO.C,SW1*%
X64500000Y-91540000D03*
D11*
X69580000Y-91540000D03*
D10*
X74660000Y-91540000D03*
D12*
X72120000Y-86460000D03*
X65770000Y-89000000D03*
%TD*%
D17*
%TO.C,U2*%
X95050000Y-59500000D03*
D18*
X97590000Y-59500000D03*
X100130000Y-59500000D03*
X102670000Y-59500000D03*
X105210000Y-59500000D03*
%TD*%
D14*
%TO.C,REF\u002A\u002A*%
X142200000Y-50000000D03*
%TD*%
D19*
%TO.C,U1*%
X69545000Y-54740000D03*
D20*
X72085000Y-54740000D03*
X74625000Y-54740000D03*
X77165000Y-54740000D03*
D21*
X62355000Y-55240000D03*
X84355000Y-55240000D03*
X84355000Y-77240000D03*
X62355000Y-77240000D03*
%TD*%
D14*
%TO.C,REF\u002A\u002A*%
X57600000Y-50000000D03*
%TD*%
D10*
%TO.C,SW5*%
X83500000Y-110540000D03*
D11*
X88580000Y-110540000D03*
D10*
X93660000Y-110540000D03*
D12*
X91120000Y-105460000D03*
X84770000Y-108000000D03*
%TD*%
D22*
%TO.C,U3*%
X121610000Y-95767000D03*
D23*
X124150000Y-95767000D03*
X126690000Y-95767000D03*
X129230000Y-95767000D03*
X131770000Y-95767000D03*
X134310000Y-95767000D03*
X136850000Y-95767000D03*
X139390000Y-95767000D03*
X139390000Y-77733000D03*
X136850000Y-77733000D03*
X134310000Y-77733000D03*
X131770000Y-77733000D03*
X129230000Y-77733000D03*
X126690000Y-77733000D03*
X124150000Y-77733000D03*
X121610000Y-77733000D03*
%TD*%
D10*
%TO.C,SW2*%
X83500000Y-91540000D03*
D11*
X88580000Y-91540000D03*
D10*
X93660000Y-91540000D03*
D12*
X91120000Y-86460000D03*
X84770000Y-89000000D03*
%TD*%
D14*
%TO.C,REF\u002A\u002A*%
X142200000Y-160600000D03*
%TD*%
D24*
%TO.C,D12*%
X98000000Y-144460000D03*
D25*
X98000000Y-152080000D03*
%TD*%
D24*
%TO.C,D2*%
X79000000Y-87650000D03*
D25*
X79000000Y-95270000D03*
%TD*%
D24*
%TO.C,D8*%
X79000000Y-126340000D03*
D25*
X79000000Y-133960000D03*
%TD*%
D24*
%TO.C,D13*%
X117000000Y-144460000D03*
D25*
X117000000Y-152080000D03*
%TD*%
D24*
%TO.C,D5*%
X79000000Y-106650000D03*
D25*
X79000000Y-114270000D03*
%TD*%
D24*
%TO.C,D6*%
X98000000Y-106460000D03*
D25*
X98000000Y-114080000D03*
%TD*%
D24*
%TO.C,D3*%
X98000000Y-87650000D03*
D25*
X98000000Y-95270000D03*
%TD*%
D24*
%TO.C,D11*%
X79000000Y-144650000D03*
D25*
X79000000Y-152270000D03*
%TD*%
D24*
%TO.C,D9*%
X98000000Y-126340000D03*
D25*
X98000000Y-133960000D03*
%TD*%
D24*
%TO.C,D7*%
X117000000Y-106340000D03*
D25*
X117000000Y-113960000D03*
%TD*%
D24*
%TO.C,D10*%
X117000000Y-126340000D03*
D25*
X117000000Y-133960000D03*
%TD*%
D24*
%TO.C,D4*%
X117000000Y-87650000D03*
D25*
X117000000Y-95270000D03*
%TD*%
M02*
