M48
; DRILL file KiCad 10.0.1 date 2026-05-30T20:53:13
; FORMAT={-:-/ absolute / metric / decimal}
; #@! TF.CreationDate,2026-05-30T20:53:13+07:00
; #@! TF.GenerationSoftware,Kicad,Pcbnew,10.0.1
; #@! TF.FileFunction,Plated,1,2,PTH
FMAT,2
METRIC
; #@! TA.AperFunction,Plated,PTH,ComponentDrill
T1C0.800
; #@! TA.AperFunction,Plated,PTH,ComponentDrill
T2C0.900
; #@! TA.AperFunction,Plated,PTH,ComponentDrill
T3C1.000
; #@! TA.AperFunction,Plated,PTH,ComponentDrill
T4C1.500
; #@! TA.AperFunction,Plated,PTH,ComponentDrill
T5C2.000
%
G90
G05
T1
X79.0Y-87.65
X79.0Y-95.27
X79.0Y-106.65
X79.0Y-114.27
X79.0Y-126.34
X79.0Y-133.96
X79.0Y-144.65
X79.0Y-152.27
X98.0Y-87.65
X98.0Y-95.27
X98.0Y-106.46
X98.0Y-114.08
X98.0Y-126.34
X98.0Y-133.96
X98.0Y-144.46
X98.0Y-152.08
X117.0Y-87.65
X117.0Y-95.27
X117.0Y-106.34
X117.0Y-113.96
X117.0Y-126.34
X117.0Y-133.96
X117.0Y-144.46
X117.0Y-152.08
X121.61Y-77.733
X121.61Y-95.767
X124.15Y-77.733
X124.15Y-95.767
X126.69Y-77.733
X126.69Y-95.767
X129.23Y-77.733
X129.23Y-95.767
X131.77Y-77.733
X131.77Y-95.767
X134.31Y-77.733
X134.31Y-95.767
X136.85Y-77.733
X136.85Y-95.767
X139.39Y-77.733
X139.39Y-95.767
T2
X95.05Y-59.5
X97.59Y-59.5
X100.13Y-59.5
X102.67Y-59.5
X105.21Y-59.5
T3
X69.545Y-54.74
X72.085Y-54.74
X74.625Y-54.74
X77.165Y-54.74
X122.84Y-118.44
X122.84Y-120.98
X122.84Y-123.52
X122.84Y-126.06
X122.84Y-128.6
X122.84Y-131.14
X122.84Y-133.68
X122.84Y-136.22
X122.84Y-138.76
X122.84Y-141.3
X122.84Y-143.84
X122.84Y-146.38
X122.84Y-148.92
X122.84Y-151.46
X122.84Y-154.0
X138.08Y-118.44
X138.08Y-120.98
X138.08Y-123.52
X138.08Y-126.06
X138.08Y-128.6
X138.08Y-131.14
X138.08Y-133.68
X138.08Y-136.22
X138.08Y-138.76
X138.08Y-141.3
X138.08Y-143.84
X138.08Y-146.38
X138.08Y-148.92
X138.08Y-151.46
X138.08Y-154.0
T4
X65.77Y-89.0
X65.77Y-108.0
X65.77Y-127.0
X65.77Y-146.0
X72.12Y-86.46
X72.12Y-105.46
X72.12Y-124.46
X72.12Y-143.46
X84.77Y-89.0
X84.77Y-108.0
X84.77Y-127.0
X84.77Y-146.0
X91.12Y-86.46
X91.12Y-105.46
X91.12Y-124.46
X91.12Y-143.46
X103.77Y-89.0
X103.77Y-108.0
X103.77Y-127.0
X103.77Y-146.0
X110.12Y-86.46
X110.12Y-105.46
X110.12Y-124.46
X110.12Y-143.46
T5
X62.355Y-55.24
X62.355Y-77.24
X84.355Y-55.24
X84.355Y-77.24
M30
