%TF.GenerationSoftware,KiCad,Pcbnew,10.0.1*%
%TF.CreationDate,2026-05-30T20:52:51+07:00*%
%TF.ProjectId,HSOD,48534f44-2e6b-4696-9361-645f70636258,rev?*%
%TF.SameCoordinates,Original*%
%TF.FileFunction,Paste,Top*%
%TF.FilePolarity,Positive*%
%FSLAX46Y46*%
G04 Gerber Fmt 4.6, Leading zero omitted, Abs format (unit mm)*
G04 Created by KiCad (PCBNEW 10.0.1) date 2026-05-30 20:52:51*
%MOMM*%
%LPD*%
G01*
G04 APERTURE LIST*
G04 Aperture macros list*
%AMRoundRect*
0 Rectangle with rounded corners*
0 $1 Rounding radius*
0 $2 $3 $4 $5 $6 $7 $8 $9 X,Y pos of 4 corners*
0 Add a 4 corners polygon primitive as box body*
4,1,4,$2,$3,$4,$5,$6,$7,$8,$9,$2,$3,0*
0 Add four circle primitives for the rounded corners*
1,1,$1+$1,$2,$3*
1,1,$1+$1,$4,$5*
1,1,$1+$1,$6,$7*
1,1,$1+$1,$8,$9*
0 Add four rect primitives between the rounded corners*
20,1,$1+$1,$2,$3,$4,$5,0*
20,1,$1+$1,$4,$5,$6,$7,0*
20,1,$1+$1,$6,$7,$8,$9,0*
20,1,$1+$1,$8,$9,$2,$3,0*%
G04 Aperture macros list end*
%ADD10C,0.000000*%
%ADD11RoundRect,0.250000X-0.375000X-0.625000X0.375000X-0.625000X0.375000X0.625000X-0.375000X0.625000X0*%
%ADD12RoundRect,0.250000X0.625000X-0.312500X0.625000X0.312500X-0.625000X0.312500X-0.625000X-0.312500X0*%
%ADD13R,2.000000X2.000000*%
G04 APERTURE END LIST*
%TO.C,MK2*%
G36*
X129387500Y-101815000D02*
G01*
X129887500Y-101815000D01*
X129887500Y-102237000D01*
X129387500Y-102237000D01*
X129387500Y-101815000D01*
G37*
G36*
X129387500Y-102637000D02*
G01*
X129887500Y-102637000D01*
X129887500Y-103059000D01*
X129387500Y-103059000D01*
X129387500Y-102637000D01*
G37*
G36*
X130287500Y-101815000D02*
G01*
X130787500Y-101815000D01*
X130787500Y-102237000D01*
X130287500Y-102237000D01*
X130287500Y-101815000D01*
G37*
G36*
X131187500Y-102637000D02*
G01*
X131687500Y-102637000D01*
X131687500Y-103059000D01*
X131187500Y-103059000D01*
X131187500Y-102637000D01*
G37*
G36*
X131187500Y-101815000D02*
G01*
X131687500Y-101815000D01*
X131687500Y-102237000D01*
X131187500Y-102237000D01*
X131187500Y-101815000D01*
G37*
D10*
G36*
X130487500Y-103539700D02*
G01*
X130377700Y-103560700D01*
X130274300Y-103602900D01*
X130181200Y-103664700D01*
X130102200Y-103743700D01*
X130040400Y-103836800D01*
X129998200Y-103940200D01*
X129977200Y-104050000D01*
X129726500Y-104050000D01*
X129754100Y-103884500D01*
X129815000Y-103728300D01*
X129906700Y-103587800D01*
X130025300Y-103469200D01*
X130165800Y-103377500D01*
X130322000Y-103316600D01*
X130487500Y-103289000D01*
X130487500Y-103539700D01*
G37*
G36*
X129998200Y-104259800D02*
G01*
X130040400Y-104363200D01*
X130102200Y-104456300D01*
X130181200Y-104535300D01*
X130274300Y-104597100D01*
X130377700Y-104639300D01*
X130487500Y-104660300D01*
X130487500Y-104911000D01*
X130322000Y-104883400D01*
X130165800Y-104822500D01*
X130025300Y-104730800D01*
X129906700Y-104612200D01*
X129815000Y-104471700D01*
X129754100Y-104315500D01*
X129726500Y-104150000D01*
X129977200Y-104150000D01*
X129998200Y-104259800D01*
G37*
G36*
X130753000Y-103316600D02*
G01*
X130909200Y-103377500D01*
X131049700Y-103469200D01*
X131168300Y-103587800D01*
X131260000Y-103728300D01*
X131320900Y-103884500D01*
X131348500Y-104050000D01*
X131097800Y-104050000D01*
X131076800Y-103940200D01*
X131034600Y-103836800D01*
X130972800Y-103743700D01*
X130893800Y-103664700D01*
X130800700Y-103602900D01*
X130697300Y-103560700D01*
X130587500Y-103539700D01*
X130587500Y-103289000D01*
X130753000Y-103316600D01*
G37*
G36*
X131320900Y-104315500D02*
G01*
X131260000Y-104471700D01*
X131168300Y-104612200D01*
X131049700Y-104730800D01*
X130909200Y-104822500D01*
X130753000Y-104883400D01*
X130587500Y-104911000D01*
X130587500Y-104660300D01*
X130697300Y-104639300D01*
X130800700Y-104597100D01*
X130893800Y-104535300D01*
X130972800Y-104456300D01*
X131034600Y-104363200D01*
X131076800Y-104259800D01*
X131097800Y-104150000D01*
X131348500Y-104150000D01*
X131320900Y-104315500D01*
G37*
%TD*%
D11*
%TO.C,D14*%
X133550000Y-110850000D03*
X136350000Y-110850000D03*
%TD*%
D12*
%TO.C,R3*%
X138500000Y-112462500D03*
X138500000Y-109537500D03*
%TD*%
D13*
%TO.C,LS1*%
X135100000Y-68420000D03*
X118900000Y-68420000D03*
%TD*%
D12*
%TO.C,R2*%
X123065000Y-88362500D03*
X123065000Y-85437500D03*
%TD*%
D11*
%TO.C,D1*%
X124630000Y-110850000D03*
X127430000Y-110850000D03*
%TD*%
D12*
%TO.C,R1*%
X129500000Y-112312500D03*
X129500000Y-109387500D03*
%TD*%
M02*
