%TF.GenerationSoftware,KiCad,Pcbnew,10.0.1*%
%TF.CreationDate,2026-05-30T20:52:51+07:00*%
%TF.ProjectId,HSOD,48534f44-2e6b-4696-9361-645f70636258,rev?*%
%TF.SameCoordinates,Original*%
%TF.FileFunction,Legend,Top*%
%TF.FilePolarity,Positive*%
%FSLAX46Y46*%
G04 Gerber Fmt 4.6, Leading zero omitted, Abs format (unit mm)*
G04 Created by KiCad (PCBNEW 10.0.1) date 2026-05-30 20:52:51*
%MOMM*%
%LPD*%
G01*
G04 APERTURE LIST*
%ADD10C,0.200000*%
%ADD11C,0.300000*%
%ADD12C,0.150000*%
%ADD13C,0.120000*%
%ADD14C,0.127000*%
G04 APERTURE END LIST*
D10*
X125000000Y-99350000D02*
X136000000Y-99350000D01*
X136000000Y-107350000D01*
X125000000Y-107350000D01*
X125000000Y-99350000D01*
D11*
X66140714Y-64540828D02*
X66426428Y-64540828D01*
X66426428Y-64540828D02*
X66569285Y-64612257D01*
X66569285Y-64612257D02*
X66712142Y-64755114D01*
X66712142Y-64755114D02*
X66783571Y-65040828D01*
X66783571Y-65040828D02*
X66783571Y-65540828D01*
X66783571Y-65540828D02*
X66712142Y-65826542D01*
X66712142Y-65826542D02*
X66569285Y-65969400D01*
X66569285Y-65969400D02*
X66426428Y-66040828D01*
X66426428Y-66040828D02*
X66140714Y-66040828D01*
X66140714Y-66040828D02*
X65997857Y-65969400D01*
X65997857Y-65969400D02*
X65854999Y-65826542D01*
X65854999Y-65826542D02*
X65783571Y-65540828D01*
X65783571Y-65540828D02*
X65783571Y-65040828D01*
X65783571Y-65040828D02*
X65854999Y-64755114D01*
X65854999Y-64755114D02*
X65997857Y-64612257D01*
X65997857Y-64612257D02*
X66140714Y-64540828D01*
X68140714Y-66040828D02*
X67426428Y-66040828D01*
X67426428Y-66040828D02*
X67426428Y-64540828D01*
X68640714Y-65255114D02*
X69140714Y-65255114D01*
X69355000Y-66040828D02*
X68640714Y-66040828D01*
X68640714Y-66040828D02*
X68640714Y-64540828D01*
X68640714Y-64540828D02*
X69355000Y-64540828D01*
X69997857Y-66040828D02*
X69997857Y-64540828D01*
X69997857Y-64540828D02*
X70355000Y-64540828D01*
X70355000Y-64540828D02*
X70569286Y-64612257D01*
X70569286Y-64612257D02*
X70712143Y-64755114D01*
X70712143Y-64755114D02*
X70783572Y-64897971D01*
X70783572Y-64897971D02*
X70855000Y-65183685D01*
X70855000Y-65183685D02*
X70855000Y-65397971D01*
X70855000Y-65397971D02*
X70783572Y-65683685D01*
X70783572Y-65683685D02*
X70712143Y-65826542D01*
X70712143Y-65826542D02*
X70569286Y-65969400D01*
X70569286Y-65969400D02*
X70355000Y-66040828D01*
X70355000Y-66040828D02*
X69997857Y-66040828D01*
X72640714Y-66040828D02*
X72640714Y-64540828D01*
X72640714Y-64540828D02*
X72997857Y-64540828D01*
X72997857Y-64540828D02*
X73212143Y-64612257D01*
X73212143Y-64612257D02*
X73355000Y-64755114D01*
X73355000Y-64755114D02*
X73426429Y-64897971D01*
X73426429Y-64897971D02*
X73497857Y-65183685D01*
X73497857Y-65183685D02*
X73497857Y-65397971D01*
X73497857Y-65397971D02*
X73426429Y-65683685D01*
X73426429Y-65683685D02*
X73355000Y-65826542D01*
X73355000Y-65826542D02*
X73212143Y-65969400D01*
X73212143Y-65969400D02*
X72997857Y-66040828D01*
X72997857Y-66040828D02*
X72640714Y-66040828D01*
X74140714Y-66040828D02*
X74140714Y-64540828D01*
X74783572Y-65969400D02*
X74997858Y-66040828D01*
X74997858Y-66040828D02*
X75355000Y-66040828D01*
X75355000Y-66040828D02*
X75497858Y-65969400D01*
X75497858Y-65969400D02*
X75569286Y-65897971D01*
X75569286Y-65897971D02*
X75640715Y-65755114D01*
X75640715Y-65755114D02*
X75640715Y-65612257D01*
X75640715Y-65612257D02*
X75569286Y-65469400D01*
X75569286Y-65469400D02*
X75497858Y-65397971D01*
X75497858Y-65397971D02*
X75355000Y-65326542D01*
X75355000Y-65326542D02*
X75069286Y-65255114D01*
X75069286Y-65255114D02*
X74926429Y-65183685D01*
X74926429Y-65183685D02*
X74855000Y-65112257D01*
X74855000Y-65112257D02*
X74783572Y-64969400D01*
X74783572Y-64969400D02*
X74783572Y-64826542D01*
X74783572Y-64826542D02*
X74855000Y-64683685D01*
X74855000Y-64683685D02*
X74926429Y-64612257D01*
X74926429Y-64612257D02*
X75069286Y-64540828D01*
X75069286Y-64540828D02*
X75426429Y-64540828D01*
X75426429Y-64540828D02*
X75640715Y-64612257D01*
X76283571Y-66040828D02*
X76283571Y-64540828D01*
X76283571Y-64540828D02*
X76855000Y-64540828D01*
X76855000Y-64540828D02*
X76997857Y-64612257D01*
X76997857Y-64612257D02*
X77069286Y-64683685D01*
X77069286Y-64683685D02*
X77140714Y-64826542D01*
X77140714Y-64826542D02*
X77140714Y-65040828D01*
X77140714Y-65040828D02*
X77069286Y-65183685D01*
X77069286Y-65183685D02*
X76997857Y-65255114D01*
X76997857Y-65255114D02*
X76855000Y-65326542D01*
X76855000Y-65326542D02*
X76283571Y-65326542D01*
X78497857Y-66040828D02*
X77783571Y-66040828D01*
X77783571Y-66040828D02*
X77783571Y-64540828D01*
X78926429Y-65612257D02*
X79640715Y-65612257D01*
X78783572Y-66040828D02*
X79283572Y-64540828D01*
X79283572Y-64540828D02*
X79783572Y-66040828D01*
X80569286Y-65326542D02*
X80569286Y-66040828D01*
X80069286Y-64540828D02*
X80569286Y-65326542D01*
X80569286Y-65326542D02*
X81069286Y-64540828D01*
X122550828Y-111823213D02*
X121836542Y-112233928D01*
X122550828Y-112680356D02*
X121050828Y-112492856D01*
X121050828Y-112492856D02*
X121050828Y-111921428D01*
X121050828Y-111921428D02*
X121122257Y-111787499D01*
X121122257Y-111787499D02*
X121193685Y-111724999D01*
X121193685Y-111724999D02*
X121336542Y-111671428D01*
X121336542Y-111671428D02*
X121550828Y-111698213D01*
X121550828Y-111698213D02*
X121693685Y-111787499D01*
X121693685Y-111787499D02*
X121765114Y-111867856D01*
X121765114Y-111867856D02*
X121836542Y-112019642D01*
X121836542Y-112019642D02*
X121836542Y-112591071D01*
X121765114Y-111082142D02*
X121765114Y-110582142D01*
X122550828Y-110466071D02*
X122550828Y-111180356D01*
X122550828Y-111180356D02*
X121050828Y-110992856D01*
X121050828Y-110992856D02*
X121050828Y-110278571D01*
X122550828Y-109823213D02*
X121050828Y-109635713D01*
X121050828Y-109635713D02*
X121050828Y-109278570D01*
X121050828Y-109278570D02*
X121122257Y-109073213D01*
X121122257Y-109073213D02*
X121265114Y-108948213D01*
X121265114Y-108948213D02*
X121407971Y-108894642D01*
X121407971Y-108894642D02*
X121693685Y-108858928D01*
X121693685Y-108858928D02*
X121907971Y-108885713D01*
X121907971Y-108885713D02*
X122193685Y-108992856D01*
X122193685Y-108992856D02*
X122336542Y-109082142D01*
X122336542Y-109082142D02*
X122479400Y-109242856D01*
X122479400Y-109242856D02*
X122550828Y-109466070D01*
X122550828Y-109466070D02*
X122550828Y-109823213D01*
X130972257Y-111823214D02*
X130900828Y-111957142D01*
X130900828Y-111957142D02*
X130900828Y-112171428D01*
X130900828Y-112171428D02*
X130972257Y-112394642D01*
X130972257Y-112394642D02*
X131115114Y-112555356D01*
X131115114Y-112555356D02*
X131257971Y-112644642D01*
X131257971Y-112644642D02*
X131543685Y-112751785D01*
X131543685Y-112751785D02*
X131757971Y-112778571D01*
X131757971Y-112778571D02*
X132043685Y-112742856D01*
X132043685Y-112742856D02*
X132186542Y-112689285D01*
X132186542Y-112689285D02*
X132329400Y-112564285D01*
X132329400Y-112564285D02*
X132400828Y-112358928D01*
X132400828Y-112358928D02*
X132400828Y-112216071D01*
X132400828Y-112216071D02*
X132329400Y-111992856D01*
X132329400Y-111992856D02*
X132257971Y-111912499D01*
X132257971Y-111912499D02*
X131757971Y-111849999D01*
X131757971Y-111849999D02*
X131757971Y-112135714D01*
X132400828Y-110430356D02*
X131686542Y-110841071D01*
X132400828Y-111287499D02*
X130900828Y-111099999D01*
X130900828Y-111099999D02*
X130900828Y-110528571D01*
X130900828Y-110528571D02*
X130972257Y-110394642D01*
X130972257Y-110394642D02*
X131043685Y-110332142D01*
X131043685Y-110332142D02*
X131186542Y-110278571D01*
X131186542Y-110278571D02*
X131400828Y-110305356D01*
X131400828Y-110305356D02*
X131543685Y-110394642D01*
X131543685Y-110394642D02*
X131615114Y-110474999D01*
X131615114Y-110474999D02*
X131686542Y-110626785D01*
X131686542Y-110626785D02*
X131686542Y-111198214D01*
X132400828Y-109787499D02*
X130900828Y-109599999D01*
X130900828Y-109599999D02*
X132400828Y-108930356D01*
X132400828Y-108930356D02*
X130900828Y-108742856D01*
D12*
X133735714Y-109474819D02*
X133735714Y-108474819D01*
X133735714Y-108474819D02*
X133973809Y-108474819D01*
X133973809Y-108474819D02*
X134116666Y-108522438D01*
X134116666Y-108522438D02*
X134211904Y-108617676D01*
X134211904Y-108617676D02*
X134259523Y-108712914D01*
X134259523Y-108712914D02*
X134307142Y-108903390D01*
X134307142Y-108903390D02*
X134307142Y-109046247D01*
X134307142Y-109046247D02*
X134259523Y-109236723D01*
X134259523Y-109236723D02*
X134211904Y-109331961D01*
X134211904Y-109331961D02*
X134116666Y-109427200D01*
X134116666Y-109427200D02*
X133973809Y-109474819D01*
X133973809Y-109474819D02*
X133735714Y-109474819D01*
X135259523Y-109474819D02*
X134688095Y-109474819D01*
X134973809Y-109474819D02*
X134973809Y-108474819D01*
X134973809Y-108474819D02*
X134878571Y-108617676D01*
X134878571Y-108617676D02*
X134783333Y-108712914D01*
X134783333Y-108712914D02*
X134688095Y-108760533D01*
X136116666Y-108808152D02*
X136116666Y-109474819D01*
X135878571Y-108427200D02*
X135640476Y-109141485D01*
X135640476Y-109141485D02*
X136259523Y-109141485D01*
X87246667Y-122073200D02*
X87389524Y-122120819D01*
X87389524Y-122120819D02*
X87627619Y-122120819D01*
X87627619Y-122120819D02*
X87722857Y-122073200D01*
X87722857Y-122073200D02*
X87770476Y-122025580D01*
X87770476Y-122025580D02*
X87818095Y-121930342D01*
X87818095Y-121930342D02*
X87818095Y-121835104D01*
X87818095Y-121835104D02*
X87770476Y-121739866D01*
X87770476Y-121739866D02*
X87722857Y-121692247D01*
X87722857Y-121692247D02*
X87627619Y-121644628D01*
X87627619Y-121644628D02*
X87437143Y-121597009D01*
X87437143Y-121597009D02*
X87341905Y-121549390D01*
X87341905Y-121549390D02*
X87294286Y-121501771D01*
X87294286Y-121501771D02*
X87246667Y-121406533D01*
X87246667Y-121406533D02*
X87246667Y-121311295D01*
X87246667Y-121311295D02*
X87294286Y-121216057D01*
X87294286Y-121216057D02*
X87341905Y-121168438D01*
X87341905Y-121168438D02*
X87437143Y-121120819D01*
X87437143Y-121120819D02*
X87675238Y-121120819D01*
X87675238Y-121120819D02*
X87818095Y-121168438D01*
X88151429Y-121120819D02*
X88389524Y-122120819D01*
X88389524Y-122120819D02*
X88580000Y-121406533D01*
X88580000Y-121406533D02*
X88770476Y-122120819D01*
X88770476Y-122120819D02*
X89008572Y-121120819D01*
X89532381Y-121549390D02*
X89437143Y-121501771D01*
X89437143Y-121501771D02*
X89389524Y-121454152D01*
X89389524Y-121454152D02*
X89341905Y-121358914D01*
X89341905Y-121358914D02*
X89341905Y-121311295D01*
X89341905Y-121311295D02*
X89389524Y-121216057D01*
X89389524Y-121216057D02*
X89437143Y-121168438D01*
X89437143Y-121168438D02*
X89532381Y-121120819D01*
X89532381Y-121120819D02*
X89722857Y-121120819D01*
X89722857Y-121120819D02*
X89818095Y-121168438D01*
X89818095Y-121168438D02*
X89865714Y-121216057D01*
X89865714Y-121216057D02*
X89913333Y-121311295D01*
X89913333Y-121311295D02*
X89913333Y-121358914D01*
X89913333Y-121358914D02*
X89865714Y-121454152D01*
X89865714Y-121454152D02*
X89818095Y-121501771D01*
X89818095Y-121501771D02*
X89722857Y-121549390D01*
X89722857Y-121549390D02*
X89532381Y-121549390D01*
X89532381Y-121549390D02*
X89437143Y-121597009D01*
X89437143Y-121597009D02*
X89389524Y-121644628D01*
X89389524Y-121644628D02*
X89341905Y-121739866D01*
X89341905Y-121739866D02*
X89341905Y-121930342D01*
X89341905Y-121930342D02*
X89389524Y-122025580D01*
X89389524Y-122025580D02*
X89437143Y-122073200D01*
X89437143Y-122073200D02*
X89532381Y-122120819D01*
X89532381Y-122120819D02*
X89722857Y-122120819D01*
X89722857Y-122120819D02*
X89818095Y-122073200D01*
X89818095Y-122073200D02*
X89865714Y-122025580D01*
X89865714Y-122025580D02*
X89913333Y-121930342D01*
X89913333Y-121930342D02*
X89913333Y-121739866D01*
X89913333Y-121739866D02*
X89865714Y-121644628D01*
X89865714Y-121644628D02*
X89818095Y-121597009D01*
X89818095Y-121597009D02*
X89722857Y-121549390D01*
X129227976Y-100844819D02*
X129227976Y-99844819D01*
X129227976Y-99844819D02*
X129561309Y-100559104D01*
X129561309Y-100559104D02*
X129894642Y-99844819D01*
X129894642Y-99844819D02*
X129894642Y-100844819D01*
X130370833Y-100844819D02*
X130370833Y-99844819D01*
X130942261Y-100844819D02*
X130513690Y-100273390D01*
X130942261Y-99844819D02*
X130370833Y-100416247D01*
X131323214Y-99940057D02*
X131370833Y-99892438D01*
X131370833Y-99892438D02*
X131466071Y-99844819D01*
X131466071Y-99844819D02*
X131704166Y-99844819D01*
X131704166Y-99844819D02*
X131799404Y-99892438D01*
X131799404Y-99892438D02*
X131847023Y-99940057D01*
X131847023Y-99940057D02*
X131894642Y-100035295D01*
X131894642Y-100035295D02*
X131894642Y-100130533D01*
X131894642Y-100130533D02*
X131847023Y-100273390D01*
X131847023Y-100273390D02*
X131275595Y-100844819D01*
X131275595Y-100844819D02*
X131894642Y-100844819D01*
X106246667Y-122073200D02*
X106389524Y-122120819D01*
X106389524Y-122120819D02*
X106627619Y-122120819D01*
X106627619Y-122120819D02*
X106722857Y-122073200D01*
X106722857Y-122073200D02*
X106770476Y-122025580D01*
X106770476Y-122025580D02*
X106818095Y-121930342D01*
X106818095Y-121930342D02*
X106818095Y-121835104D01*
X106818095Y-121835104D02*
X106770476Y-121739866D01*
X106770476Y-121739866D02*
X106722857Y-121692247D01*
X106722857Y-121692247D02*
X106627619Y-121644628D01*
X106627619Y-121644628D02*
X106437143Y-121597009D01*
X106437143Y-121597009D02*
X106341905Y-121549390D01*
X106341905Y-121549390D02*
X106294286Y-121501771D01*
X106294286Y-121501771D02*
X106246667Y-121406533D01*
X106246667Y-121406533D02*
X106246667Y-121311295D01*
X106246667Y-121311295D02*
X106294286Y-121216057D01*
X106294286Y-121216057D02*
X106341905Y-121168438D01*
X106341905Y-121168438D02*
X106437143Y-121120819D01*
X106437143Y-121120819D02*
X106675238Y-121120819D01*
X106675238Y-121120819D02*
X106818095Y-121168438D01*
X107151429Y-121120819D02*
X107389524Y-122120819D01*
X107389524Y-122120819D02*
X107580000Y-121406533D01*
X107580000Y-121406533D02*
X107770476Y-122120819D01*
X107770476Y-122120819D02*
X108008572Y-121120819D01*
X108437143Y-122120819D02*
X108627619Y-122120819D01*
X108627619Y-122120819D02*
X108722857Y-122073200D01*
X108722857Y-122073200D02*
X108770476Y-122025580D01*
X108770476Y-122025580D02*
X108865714Y-121882723D01*
X108865714Y-121882723D02*
X108913333Y-121692247D01*
X108913333Y-121692247D02*
X108913333Y-121311295D01*
X108913333Y-121311295D02*
X108865714Y-121216057D01*
X108865714Y-121216057D02*
X108818095Y-121168438D01*
X108818095Y-121168438D02*
X108722857Y-121120819D01*
X108722857Y-121120819D02*
X108532381Y-121120819D01*
X108532381Y-121120819D02*
X108437143Y-121168438D01*
X108437143Y-121168438D02*
X108389524Y-121216057D01*
X108389524Y-121216057D02*
X108341905Y-121311295D01*
X108341905Y-121311295D02*
X108341905Y-121549390D01*
X108341905Y-121549390D02*
X108389524Y-121644628D01*
X108389524Y-121644628D02*
X108437143Y-121692247D01*
X108437143Y-121692247D02*
X108532381Y-121739866D01*
X108532381Y-121739866D02*
X108722857Y-121739866D01*
X108722857Y-121739866D02*
X108818095Y-121692247D01*
X108818095Y-121692247D02*
X108865714Y-121644628D01*
X108865714Y-121644628D02*
X108913333Y-121549390D01*
X137124819Y-111166666D02*
X136648628Y-111499999D01*
X137124819Y-111738094D02*
X136124819Y-111738094D01*
X136124819Y-111738094D02*
X136124819Y-111357142D01*
X136124819Y-111357142D02*
X136172438Y-111261904D01*
X136172438Y-111261904D02*
X136220057Y-111214285D01*
X136220057Y-111214285D02*
X136315295Y-111166666D01*
X136315295Y-111166666D02*
X136458152Y-111166666D01*
X136458152Y-111166666D02*
X136553390Y-111214285D01*
X136553390Y-111214285D02*
X136601009Y-111261904D01*
X136601009Y-111261904D02*
X136648628Y-111357142D01*
X136648628Y-111357142D02*
X136648628Y-111738094D01*
X136124819Y-110833332D02*
X136124819Y-110214285D01*
X136124819Y-110214285D02*
X136505771Y-110547618D01*
X136505771Y-110547618D02*
X136505771Y-110404761D01*
X136505771Y-110404761D02*
X136553390Y-110309523D01*
X136553390Y-110309523D02*
X136601009Y-110261904D01*
X136601009Y-110261904D02*
X136696247Y-110214285D01*
X136696247Y-110214285D02*
X136934342Y-110214285D01*
X136934342Y-110214285D02*
X137029580Y-110261904D01*
X137029580Y-110261904D02*
X137077200Y-110309523D01*
X137077200Y-110309523D02*
X137124819Y-110404761D01*
X137124819Y-110404761D02*
X137124819Y-110690475D01*
X137124819Y-110690475D02*
X137077200Y-110785713D01*
X137077200Y-110785713D02*
X137029580Y-110833332D01*
X106246667Y-84073200D02*
X106389524Y-84120819D01*
X106389524Y-84120819D02*
X106627619Y-84120819D01*
X106627619Y-84120819D02*
X106722857Y-84073200D01*
X106722857Y-84073200D02*
X106770476Y-84025580D01*
X106770476Y-84025580D02*
X106818095Y-83930342D01*
X106818095Y-83930342D02*
X106818095Y-83835104D01*
X106818095Y-83835104D02*
X106770476Y-83739866D01*
X106770476Y-83739866D02*
X106722857Y-83692247D01*
X106722857Y-83692247D02*
X106627619Y-83644628D01*
X106627619Y-83644628D02*
X106437143Y-83597009D01*
X106437143Y-83597009D02*
X106341905Y-83549390D01*
X106341905Y-83549390D02*
X106294286Y-83501771D01*
X106294286Y-83501771D02*
X106246667Y-83406533D01*
X106246667Y-83406533D02*
X106246667Y-83311295D01*
X106246667Y-83311295D02*
X106294286Y-83216057D01*
X106294286Y-83216057D02*
X106341905Y-83168438D01*
X106341905Y-83168438D02*
X106437143Y-83120819D01*
X106437143Y-83120819D02*
X106675238Y-83120819D01*
X106675238Y-83120819D02*
X106818095Y-83168438D01*
X107151429Y-83120819D02*
X107389524Y-84120819D01*
X107389524Y-84120819D02*
X107580000Y-83406533D01*
X107580000Y-83406533D02*
X107770476Y-84120819D01*
X107770476Y-84120819D02*
X108008572Y-83120819D01*
X108294286Y-83120819D02*
X108913333Y-83120819D01*
X108913333Y-83120819D02*
X108580000Y-83501771D01*
X108580000Y-83501771D02*
X108722857Y-83501771D01*
X108722857Y-83501771D02*
X108818095Y-83549390D01*
X108818095Y-83549390D02*
X108865714Y-83597009D01*
X108865714Y-83597009D02*
X108913333Y-83692247D01*
X108913333Y-83692247D02*
X108913333Y-83930342D01*
X108913333Y-83930342D02*
X108865714Y-84025580D01*
X108865714Y-84025580D02*
X108818095Y-84073200D01*
X108818095Y-84073200D02*
X108722857Y-84120819D01*
X108722857Y-84120819D02*
X108437143Y-84120819D01*
X108437143Y-84120819D02*
X108341905Y-84073200D01*
X108341905Y-84073200D02*
X108294286Y-84025580D01*
X68246667Y-103073200D02*
X68389524Y-103120819D01*
X68389524Y-103120819D02*
X68627619Y-103120819D01*
X68627619Y-103120819D02*
X68722857Y-103073200D01*
X68722857Y-103073200D02*
X68770476Y-103025580D01*
X68770476Y-103025580D02*
X68818095Y-102930342D01*
X68818095Y-102930342D02*
X68818095Y-102835104D01*
X68818095Y-102835104D02*
X68770476Y-102739866D01*
X68770476Y-102739866D02*
X68722857Y-102692247D01*
X68722857Y-102692247D02*
X68627619Y-102644628D01*
X68627619Y-102644628D02*
X68437143Y-102597009D01*
X68437143Y-102597009D02*
X68341905Y-102549390D01*
X68341905Y-102549390D02*
X68294286Y-102501771D01*
X68294286Y-102501771D02*
X68246667Y-102406533D01*
X68246667Y-102406533D02*
X68246667Y-102311295D01*
X68246667Y-102311295D02*
X68294286Y-102216057D01*
X68294286Y-102216057D02*
X68341905Y-102168438D01*
X68341905Y-102168438D02*
X68437143Y-102120819D01*
X68437143Y-102120819D02*
X68675238Y-102120819D01*
X68675238Y-102120819D02*
X68818095Y-102168438D01*
X69151429Y-102120819D02*
X69389524Y-103120819D01*
X69389524Y-103120819D02*
X69580000Y-102406533D01*
X69580000Y-102406533D02*
X69770476Y-103120819D01*
X69770476Y-103120819D02*
X70008572Y-102120819D01*
X70818095Y-102454152D02*
X70818095Y-103120819D01*
X70580000Y-102073200D02*
X70341905Y-102787485D01*
X70341905Y-102787485D02*
X70960952Y-102787485D01*
X86770476Y-140947200D02*
X86913333Y-140994819D01*
X86913333Y-140994819D02*
X87151428Y-140994819D01*
X87151428Y-140994819D02*
X87246666Y-140947200D01*
X87246666Y-140947200D02*
X87294285Y-140899580D01*
X87294285Y-140899580D02*
X87341904Y-140804342D01*
X87341904Y-140804342D02*
X87341904Y-140709104D01*
X87341904Y-140709104D02*
X87294285Y-140613866D01*
X87294285Y-140613866D02*
X87246666Y-140566247D01*
X87246666Y-140566247D02*
X87151428Y-140518628D01*
X87151428Y-140518628D02*
X86960952Y-140471009D01*
X86960952Y-140471009D02*
X86865714Y-140423390D01*
X86865714Y-140423390D02*
X86818095Y-140375771D01*
X86818095Y-140375771D02*
X86770476Y-140280533D01*
X86770476Y-140280533D02*
X86770476Y-140185295D01*
X86770476Y-140185295D02*
X86818095Y-140090057D01*
X86818095Y-140090057D02*
X86865714Y-140042438D01*
X86865714Y-140042438D02*
X86960952Y-139994819D01*
X86960952Y-139994819D02*
X87199047Y-139994819D01*
X87199047Y-139994819D02*
X87341904Y-140042438D01*
X87675238Y-139994819D02*
X87913333Y-140994819D01*
X87913333Y-140994819D02*
X88103809Y-140280533D01*
X88103809Y-140280533D02*
X88294285Y-140994819D01*
X88294285Y-140994819D02*
X88532381Y-139994819D01*
X89437142Y-140994819D02*
X88865714Y-140994819D01*
X89151428Y-140994819D02*
X89151428Y-139994819D01*
X89151428Y-139994819D02*
X89056190Y-140137676D01*
X89056190Y-140137676D02*
X88960952Y-140232914D01*
X88960952Y-140232914D02*
X88865714Y-140280533D01*
X90389523Y-140994819D02*
X89818095Y-140994819D01*
X90103809Y-140994819D02*
X90103809Y-139994819D01*
X90103809Y-139994819D02*
X90008571Y-140137676D01*
X90008571Y-140137676D02*
X89913333Y-140232914D01*
X89913333Y-140232914D02*
X89818095Y-140280533D01*
X137880217Y-60210975D02*
X137880217Y-60687668D01*
X137880217Y-60687668D02*
X136879162Y-60687668D01*
X137832548Y-59924959D02*
X137880217Y-59781952D01*
X137880217Y-59781952D02*
X137880217Y-59543605D01*
X137880217Y-59543605D02*
X137832548Y-59448267D01*
X137832548Y-59448267D02*
X137784878Y-59400597D01*
X137784878Y-59400597D02*
X137689540Y-59352928D01*
X137689540Y-59352928D02*
X137594201Y-59352928D01*
X137594201Y-59352928D02*
X137498863Y-59400597D01*
X137498863Y-59400597D02*
X137451193Y-59448267D01*
X137451193Y-59448267D02*
X137403524Y-59543605D01*
X137403524Y-59543605D02*
X137355855Y-59734282D01*
X137355855Y-59734282D02*
X137308185Y-59829621D01*
X137308185Y-59829621D02*
X137260516Y-59877290D01*
X137260516Y-59877290D02*
X137165178Y-59924959D01*
X137165178Y-59924959D02*
X137069839Y-59924959D01*
X137069839Y-59924959D02*
X136974500Y-59877290D01*
X136974500Y-59877290D02*
X136926831Y-59829621D01*
X136926831Y-59829621D02*
X136879162Y-59734282D01*
X136879162Y-59734282D02*
X136879162Y-59495936D01*
X136879162Y-59495936D02*
X136926831Y-59352928D01*
X137880217Y-58399542D02*
X137880217Y-58971573D01*
X137880217Y-58685558D02*
X136879162Y-58685558D01*
X136879162Y-58685558D02*
X137022170Y-58780896D01*
X137022170Y-58780896D02*
X137117508Y-58876235D01*
X137117508Y-58876235D02*
X137165178Y-58971573D01*
X117157482Y-73250695D02*
X117205306Y-73298518D01*
X117205306Y-73298518D02*
X117253129Y-73441989D01*
X117253129Y-73441989D02*
X117253129Y-73537635D01*
X117253129Y-73537635D02*
X117205306Y-73681105D01*
X117205306Y-73681105D02*
X117109659Y-73776752D01*
X117109659Y-73776752D02*
X117014012Y-73824576D01*
X117014012Y-73824576D02*
X116822718Y-73872399D01*
X116822718Y-73872399D02*
X116679248Y-73872399D01*
X116679248Y-73872399D02*
X116487955Y-73824576D01*
X116487955Y-73824576D02*
X116392308Y-73776752D01*
X116392308Y-73776752D02*
X116296661Y-73681105D01*
X116296661Y-73681105D02*
X116248838Y-73537635D01*
X116248838Y-73537635D02*
X116248838Y-73441989D01*
X116248838Y-73441989D02*
X116296661Y-73298518D01*
X116296661Y-73298518D02*
X116344485Y-73250695D01*
X117253129Y-72820285D02*
X116248838Y-72820285D01*
X116248838Y-72820285D02*
X116966189Y-72485521D01*
X116966189Y-72485521D02*
X116248838Y-72150757D01*
X116248838Y-72150757D02*
X117253129Y-72150757D01*
X117205306Y-71720347D02*
X117253129Y-71576877D01*
X117253129Y-71576877D02*
X117253129Y-71337760D01*
X117253129Y-71337760D02*
X117205306Y-71242113D01*
X117205306Y-71242113D02*
X117157482Y-71194290D01*
X117157482Y-71194290D02*
X117061835Y-71146466D01*
X117061835Y-71146466D02*
X116966189Y-71146466D01*
X116966189Y-71146466D02*
X116870542Y-71194290D01*
X116870542Y-71194290D02*
X116822718Y-71242113D01*
X116822718Y-71242113D02*
X116774895Y-71337760D01*
X116774895Y-71337760D02*
X116727072Y-71529053D01*
X116727072Y-71529053D02*
X116679248Y-71624700D01*
X116679248Y-71624700D02*
X116631425Y-71672524D01*
X116631425Y-71672524D02*
X116535778Y-71720347D01*
X116535778Y-71720347D02*
X116440131Y-71720347D01*
X116440131Y-71720347D02*
X116344485Y-71672524D01*
X116344485Y-71672524D02*
X116296661Y-71624700D01*
X116296661Y-71624700D02*
X116248838Y-71529053D01*
X116248838Y-71529053D02*
X116248838Y-71289937D01*
X116248838Y-71289937D02*
X116296661Y-71146466D01*
X116870542Y-70716056D02*
X116870542Y-69950882D01*
X117253129Y-68946590D02*
X117253129Y-69520471D01*
X117253129Y-69233531D02*
X116248838Y-69233531D01*
X116248838Y-69233531D02*
X116392308Y-69329177D01*
X116392308Y-69329177D02*
X116487955Y-69424824D01*
X116487955Y-69424824D02*
X116535778Y-69520471D01*
X116679248Y-68372709D02*
X116631425Y-68468356D01*
X116631425Y-68468356D02*
X116583602Y-68516180D01*
X116583602Y-68516180D02*
X116487955Y-68564003D01*
X116487955Y-68564003D02*
X116440131Y-68564003D01*
X116440131Y-68564003D02*
X116344485Y-68516180D01*
X116344485Y-68516180D02*
X116296661Y-68468356D01*
X116296661Y-68468356D02*
X116248838Y-68372709D01*
X116248838Y-68372709D02*
X116248838Y-68181416D01*
X116248838Y-68181416D02*
X116296661Y-68085769D01*
X116296661Y-68085769D02*
X116344485Y-68037946D01*
X116344485Y-68037946D02*
X116440131Y-67990122D01*
X116440131Y-67990122D02*
X116487955Y-67990122D01*
X116487955Y-67990122D02*
X116583602Y-68037946D01*
X116583602Y-68037946D02*
X116631425Y-68085769D01*
X116631425Y-68085769D02*
X116679248Y-68181416D01*
X116679248Y-68181416D02*
X116679248Y-68372709D01*
X116679248Y-68372709D02*
X116727072Y-68468356D01*
X116727072Y-68468356D02*
X116774895Y-68516180D01*
X116774895Y-68516180D02*
X116870542Y-68564003D01*
X116870542Y-68564003D02*
X117061835Y-68564003D01*
X117061835Y-68564003D02*
X117157482Y-68516180D01*
X117157482Y-68516180D02*
X117205306Y-68468356D01*
X117205306Y-68468356D02*
X117253129Y-68372709D01*
X117253129Y-68372709D02*
X117253129Y-68181416D01*
X117253129Y-68181416D02*
X117205306Y-68085769D01*
X117205306Y-68085769D02*
X117157482Y-68037946D01*
X117157482Y-68037946D02*
X117061835Y-67990122D01*
X117061835Y-67990122D02*
X116870542Y-67990122D01*
X116870542Y-67990122D02*
X116774895Y-68037946D01*
X116774895Y-68037946D02*
X116727072Y-68085769D01*
X116727072Y-68085769D02*
X116679248Y-68181416D01*
X117253129Y-67033654D02*
X117253129Y-67607535D01*
X117253129Y-67320595D02*
X116248838Y-67320595D01*
X116248838Y-67320595D02*
X116392308Y-67416241D01*
X116392308Y-67416241D02*
X116487955Y-67511888D01*
X116487955Y-67511888D02*
X116535778Y-67607535D01*
X116248838Y-66698890D02*
X116248838Y-66077186D01*
X116248838Y-66077186D02*
X116631425Y-66411950D01*
X116631425Y-66411950D02*
X116631425Y-66268480D01*
X116631425Y-66268480D02*
X116679248Y-66172833D01*
X116679248Y-66172833D02*
X116727072Y-66125010D01*
X116727072Y-66125010D02*
X116822718Y-66077186D01*
X116822718Y-66077186D02*
X117061835Y-66077186D01*
X117061835Y-66077186D02*
X117157482Y-66125010D01*
X117157482Y-66125010D02*
X117205306Y-66172833D01*
X117205306Y-66172833D02*
X117253129Y-66268480D01*
X117253129Y-66268480D02*
X117253129Y-66555420D01*
X117253129Y-66555420D02*
X117205306Y-66651067D01*
X117205306Y-66651067D02*
X117157482Y-66698890D01*
X116679248Y-65503305D02*
X116631425Y-65598952D01*
X116631425Y-65598952D02*
X116583602Y-65646776D01*
X116583602Y-65646776D02*
X116487955Y-65694599D01*
X116487955Y-65694599D02*
X116440131Y-65694599D01*
X116440131Y-65694599D02*
X116344485Y-65646776D01*
X116344485Y-65646776D02*
X116296661Y-65598952D01*
X116296661Y-65598952D02*
X116248838Y-65503305D01*
X116248838Y-65503305D02*
X116248838Y-65312012D01*
X116248838Y-65312012D02*
X116296661Y-65216365D01*
X116296661Y-65216365D02*
X116344485Y-65168542D01*
X116344485Y-65168542D02*
X116440131Y-65120718D01*
X116440131Y-65120718D02*
X116487955Y-65120718D01*
X116487955Y-65120718D02*
X116583602Y-65168542D01*
X116583602Y-65168542D02*
X116631425Y-65216365D01*
X116631425Y-65216365D02*
X116679248Y-65312012D01*
X116679248Y-65312012D02*
X116679248Y-65503305D01*
X116679248Y-65503305D02*
X116727072Y-65598952D01*
X116727072Y-65598952D02*
X116774895Y-65646776D01*
X116774895Y-65646776D02*
X116870542Y-65694599D01*
X116870542Y-65694599D02*
X117061835Y-65694599D01*
X117061835Y-65694599D02*
X117157482Y-65646776D01*
X117157482Y-65646776D02*
X117205306Y-65598952D01*
X117205306Y-65598952D02*
X117253129Y-65503305D01*
X117253129Y-65503305D02*
X117253129Y-65312012D01*
X117253129Y-65312012D02*
X117205306Y-65216365D01*
X117205306Y-65216365D02*
X117157482Y-65168542D01*
X117157482Y-65168542D02*
X117061835Y-65120718D01*
X117061835Y-65120718D02*
X116870542Y-65120718D01*
X116870542Y-65120718D02*
X116774895Y-65168542D01*
X116774895Y-65168542D02*
X116727072Y-65216365D01*
X116727072Y-65216365D02*
X116679248Y-65312012D01*
X116966189Y-64738131D02*
X116966189Y-64259897D01*
X117253129Y-64833778D02*
X116248838Y-64499014D01*
X116248838Y-64499014D02*
X117253129Y-64164250D01*
X116870542Y-63829487D02*
X116870542Y-63064313D01*
X117205306Y-62633902D02*
X117253129Y-62490432D01*
X117253129Y-62490432D02*
X117253129Y-62251315D01*
X117253129Y-62251315D02*
X117205306Y-62155668D01*
X117205306Y-62155668D02*
X117157482Y-62107845D01*
X117157482Y-62107845D02*
X117061835Y-62060021D01*
X117061835Y-62060021D02*
X116966189Y-62060021D01*
X116966189Y-62060021D02*
X116870542Y-62107845D01*
X116870542Y-62107845D02*
X116822718Y-62155668D01*
X116822718Y-62155668D02*
X116774895Y-62251315D01*
X116774895Y-62251315D02*
X116727072Y-62442608D01*
X116727072Y-62442608D02*
X116679248Y-62538255D01*
X116679248Y-62538255D02*
X116631425Y-62586079D01*
X116631425Y-62586079D02*
X116535778Y-62633902D01*
X116535778Y-62633902D02*
X116440131Y-62633902D01*
X116440131Y-62633902D02*
X116344485Y-62586079D01*
X116344485Y-62586079D02*
X116296661Y-62538255D01*
X116296661Y-62538255D02*
X116248838Y-62442608D01*
X116248838Y-62442608D02*
X116248838Y-62203492D01*
X116248838Y-62203492D02*
X116296661Y-62060021D01*
X117253129Y-61629611D02*
X116248838Y-61629611D01*
X116248838Y-61629611D02*
X116248838Y-61247024D01*
X116248838Y-61247024D02*
X116296661Y-61151377D01*
X116296661Y-61151377D02*
X116344485Y-61103553D01*
X116344485Y-61103553D02*
X116440131Y-61055730D01*
X116440131Y-61055730D02*
X116583602Y-61055730D01*
X116583602Y-61055730D02*
X116679248Y-61103553D01*
X116679248Y-61103553D02*
X116727072Y-61151377D01*
X116727072Y-61151377D02*
X116774895Y-61247024D01*
X116774895Y-61247024D02*
X116774895Y-61629611D01*
X118238524Y-70711278D02*
X118238524Y-69947160D01*
X118620583Y-70329219D02*
X117856464Y-70329219D01*
X134783336Y-71130843D02*
X134783336Y-70368015D01*
X106246667Y-103073200D02*
X106389524Y-103120819D01*
X106389524Y-103120819D02*
X106627619Y-103120819D01*
X106627619Y-103120819D02*
X106722857Y-103073200D01*
X106722857Y-103073200D02*
X106770476Y-103025580D01*
X106770476Y-103025580D02*
X106818095Y-102930342D01*
X106818095Y-102930342D02*
X106818095Y-102835104D01*
X106818095Y-102835104D02*
X106770476Y-102739866D01*
X106770476Y-102739866D02*
X106722857Y-102692247D01*
X106722857Y-102692247D02*
X106627619Y-102644628D01*
X106627619Y-102644628D02*
X106437143Y-102597009D01*
X106437143Y-102597009D02*
X106341905Y-102549390D01*
X106341905Y-102549390D02*
X106294286Y-102501771D01*
X106294286Y-102501771D02*
X106246667Y-102406533D01*
X106246667Y-102406533D02*
X106246667Y-102311295D01*
X106246667Y-102311295D02*
X106294286Y-102216057D01*
X106294286Y-102216057D02*
X106341905Y-102168438D01*
X106341905Y-102168438D02*
X106437143Y-102120819D01*
X106437143Y-102120819D02*
X106675238Y-102120819D01*
X106675238Y-102120819D02*
X106818095Y-102168438D01*
X107151429Y-102120819D02*
X107389524Y-103120819D01*
X107389524Y-103120819D02*
X107580000Y-102406533D01*
X107580000Y-102406533D02*
X107770476Y-103120819D01*
X107770476Y-103120819D02*
X108008572Y-102120819D01*
X108818095Y-102120819D02*
X108627619Y-102120819D01*
X108627619Y-102120819D02*
X108532381Y-102168438D01*
X108532381Y-102168438D02*
X108484762Y-102216057D01*
X108484762Y-102216057D02*
X108389524Y-102358914D01*
X108389524Y-102358914D02*
X108341905Y-102549390D01*
X108341905Y-102549390D02*
X108341905Y-102930342D01*
X108341905Y-102930342D02*
X108389524Y-103025580D01*
X108389524Y-103025580D02*
X108437143Y-103073200D01*
X108437143Y-103073200D02*
X108532381Y-103120819D01*
X108532381Y-103120819D02*
X108722857Y-103120819D01*
X108722857Y-103120819D02*
X108818095Y-103073200D01*
X108818095Y-103073200D02*
X108865714Y-103025580D01*
X108865714Y-103025580D02*
X108913333Y-102930342D01*
X108913333Y-102930342D02*
X108913333Y-102692247D01*
X108913333Y-102692247D02*
X108865714Y-102597009D01*
X108865714Y-102597009D02*
X108818095Y-102549390D01*
X108818095Y-102549390D02*
X108722857Y-102501771D01*
X108722857Y-102501771D02*
X108532381Y-102501771D01*
X108532381Y-102501771D02*
X108437143Y-102549390D01*
X108437143Y-102549390D02*
X108389524Y-102597009D01*
X108389524Y-102597009D02*
X108341905Y-102692247D01*
X105770476Y-141073200D02*
X105913333Y-141120819D01*
X105913333Y-141120819D02*
X106151428Y-141120819D01*
X106151428Y-141120819D02*
X106246666Y-141073200D01*
X106246666Y-141073200D02*
X106294285Y-141025580D01*
X106294285Y-141025580D02*
X106341904Y-140930342D01*
X106341904Y-140930342D02*
X106341904Y-140835104D01*
X106341904Y-140835104D02*
X106294285Y-140739866D01*
X106294285Y-140739866D02*
X106246666Y-140692247D01*
X106246666Y-140692247D02*
X106151428Y-140644628D01*
X106151428Y-140644628D02*
X105960952Y-140597009D01*
X105960952Y-140597009D02*
X105865714Y-140549390D01*
X105865714Y-140549390D02*
X105818095Y-140501771D01*
X105818095Y-140501771D02*
X105770476Y-140406533D01*
X105770476Y-140406533D02*
X105770476Y-140311295D01*
X105770476Y-140311295D02*
X105818095Y-140216057D01*
X105818095Y-140216057D02*
X105865714Y-140168438D01*
X105865714Y-140168438D02*
X105960952Y-140120819D01*
X105960952Y-140120819D02*
X106199047Y-140120819D01*
X106199047Y-140120819D02*
X106341904Y-140168438D01*
X106675238Y-140120819D02*
X106913333Y-141120819D01*
X106913333Y-141120819D02*
X107103809Y-140406533D01*
X107103809Y-140406533D02*
X107294285Y-141120819D01*
X107294285Y-141120819D02*
X107532381Y-140120819D01*
X108437142Y-141120819D02*
X107865714Y-141120819D01*
X108151428Y-141120819D02*
X108151428Y-140120819D01*
X108151428Y-140120819D02*
X108056190Y-140263676D01*
X108056190Y-140263676D02*
X107960952Y-140358914D01*
X107960952Y-140358914D02*
X107865714Y-140406533D01*
X108818095Y-140216057D02*
X108865714Y-140168438D01*
X108865714Y-140168438D02*
X108960952Y-140120819D01*
X108960952Y-140120819D02*
X109199047Y-140120819D01*
X109199047Y-140120819D02*
X109294285Y-140168438D01*
X109294285Y-140168438D02*
X109341904Y-140216057D01*
X109341904Y-140216057D02*
X109389523Y-140311295D01*
X109389523Y-140311295D02*
X109389523Y-140406533D01*
X109389523Y-140406533D02*
X109341904Y-140549390D01*
X109341904Y-140549390D02*
X108770476Y-141120819D01*
X108770476Y-141120819D02*
X109389523Y-141120819D01*
X68246667Y-122073200D02*
X68389524Y-122120819D01*
X68389524Y-122120819D02*
X68627619Y-122120819D01*
X68627619Y-122120819D02*
X68722857Y-122073200D01*
X68722857Y-122073200D02*
X68770476Y-122025580D01*
X68770476Y-122025580D02*
X68818095Y-121930342D01*
X68818095Y-121930342D02*
X68818095Y-121835104D01*
X68818095Y-121835104D02*
X68770476Y-121739866D01*
X68770476Y-121739866D02*
X68722857Y-121692247D01*
X68722857Y-121692247D02*
X68627619Y-121644628D01*
X68627619Y-121644628D02*
X68437143Y-121597009D01*
X68437143Y-121597009D02*
X68341905Y-121549390D01*
X68341905Y-121549390D02*
X68294286Y-121501771D01*
X68294286Y-121501771D02*
X68246667Y-121406533D01*
X68246667Y-121406533D02*
X68246667Y-121311295D01*
X68246667Y-121311295D02*
X68294286Y-121216057D01*
X68294286Y-121216057D02*
X68341905Y-121168438D01*
X68341905Y-121168438D02*
X68437143Y-121120819D01*
X68437143Y-121120819D02*
X68675238Y-121120819D01*
X68675238Y-121120819D02*
X68818095Y-121168438D01*
X69151429Y-121120819D02*
X69389524Y-122120819D01*
X69389524Y-122120819D02*
X69580000Y-121406533D01*
X69580000Y-121406533D02*
X69770476Y-122120819D01*
X69770476Y-122120819D02*
X70008572Y-121120819D01*
X70294286Y-121120819D02*
X70960952Y-121120819D01*
X70960952Y-121120819D02*
X70532381Y-122120819D01*
X129745714Y-115669104D02*
X130221904Y-115669104D01*
X129650476Y-115954819D02*
X129983809Y-114954819D01*
X129983809Y-114954819D02*
X130317142Y-115954819D01*
X131174285Y-115954819D02*
X130602857Y-115954819D01*
X130888571Y-115954819D02*
X130888571Y-114954819D01*
X130888571Y-114954819D02*
X130793333Y-115097676D01*
X130793333Y-115097676D02*
X130698095Y-115192914D01*
X130698095Y-115192914D02*
X130602857Y-115240533D01*
X131899104Y-145109047D02*
X131899104Y-144632857D01*
X132184819Y-145204285D02*
X131184819Y-144870952D01*
X131184819Y-144870952D02*
X132184819Y-144537619D01*
X132184819Y-144204285D02*
X131518152Y-144204285D01*
X131708628Y-144204285D02*
X131613390Y-144156666D01*
X131613390Y-144156666D02*
X131565771Y-144109047D01*
X131565771Y-144109047D02*
X131518152Y-144013809D01*
X131518152Y-144013809D02*
X131518152Y-143918571D01*
X132184819Y-143156666D02*
X131184819Y-143156666D01*
X132137200Y-143156666D02*
X132184819Y-143251904D01*
X132184819Y-143251904D02*
X132184819Y-143442380D01*
X132184819Y-143442380D02*
X132137200Y-143537618D01*
X132137200Y-143537618D02*
X132089580Y-143585237D01*
X132089580Y-143585237D02*
X131994342Y-143632856D01*
X131994342Y-143632856D02*
X131708628Y-143632856D01*
X131708628Y-143632856D02*
X131613390Y-143585237D01*
X131613390Y-143585237D02*
X131565771Y-143537618D01*
X131565771Y-143537618D02*
X131518152Y-143442380D01*
X131518152Y-143442380D02*
X131518152Y-143251904D01*
X131518152Y-143251904D02*
X131565771Y-143156666D01*
X131518152Y-142251904D02*
X132184819Y-142251904D01*
X131518152Y-142680475D02*
X132041961Y-142680475D01*
X132041961Y-142680475D02*
X132137200Y-142632856D01*
X132137200Y-142632856D02*
X132184819Y-142537618D01*
X132184819Y-142537618D02*
X132184819Y-142394761D01*
X132184819Y-142394761D02*
X132137200Y-142299523D01*
X132137200Y-142299523D02*
X132089580Y-142251904D01*
X132184819Y-141775713D02*
X131518152Y-141775713D01*
X131184819Y-141775713D02*
X131232438Y-141823332D01*
X131232438Y-141823332D02*
X131280057Y-141775713D01*
X131280057Y-141775713D02*
X131232438Y-141728094D01*
X131232438Y-141728094D02*
X131184819Y-141775713D01*
X131184819Y-141775713D02*
X131280057Y-141775713D01*
X131518152Y-141299523D02*
X132184819Y-141299523D01*
X131613390Y-141299523D02*
X131565771Y-141251904D01*
X131565771Y-141251904D02*
X131518152Y-141156666D01*
X131518152Y-141156666D02*
X131518152Y-141013809D01*
X131518152Y-141013809D02*
X131565771Y-140918571D01*
X131565771Y-140918571D02*
X131661009Y-140870952D01*
X131661009Y-140870952D02*
X132184819Y-140870952D01*
X132184819Y-140251904D02*
X132137200Y-140347142D01*
X132137200Y-140347142D02*
X132089580Y-140394761D01*
X132089580Y-140394761D02*
X131994342Y-140442380D01*
X131994342Y-140442380D02*
X131708628Y-140442380D01*
X131708628Y-140442380D02*
X131613390Y-140394761D01*
X131613390Y-140394761D02*
X131565771Y-140347142D01*
X131565771Y-140347142D02*
X131518152Y-140251904D01*
X131518152Y-140251904D02*
X131518152Y-140109047D01*
X131518152Y-140109047D02*
X131565771Y-140013809D01*
X131565771Y-140013809D02*
X131613390Y-139966190D01*
X131613390Y-139966190D02*
X131708628Y-139918571D01*
X131708628Y-139918571D02*
X131994342Y-139918571D01*
X131994342Y-139918571D02*
X132089580Y-139966190D01*
X132089580Y-139966190D02*
X132137200Y-140013809D01*
X132137200Y-140013809D02*
X132184819Y-140109047D01*
X132184819Y-140109047D02*
X132184819Y-140251904D01*
X132280057Y-139728095D02*
X132280057Y-138966190D01*
X132184819Y-138728094D02*
X131184819Y-138728094D01*
X131184819Y-138728094D02*
X132184819Y-138156666D01*
X132184819Y-138156666D02*
X131184819Y-138156666D01*
X132184819Y-137251904D02*
X131661009Y-137251904D01*
X131661009Y-137251904D02*
X131565771Y-137299523D01*
X131565771Y-137299523D02*
X131518152Y-137394761D01*
X131518152Y-137394761D02*
X131518152Y-137585237D01*
X131518152Y-137585237D02*
X131565771Y-137680475D01*
X132137200Y-137251904D02*
X132184819Y-137347142D01*
X132184819Y-137347142D02*
X132184819Y-137585237D01*
X132184819Y-137585237D02*
X132137200Y-137680475D01*
X132137200Y-137680475D02*
X132041961Y-137728094D01*
X132041961Y-137728094D02*
X131946723Y-137728094D01*
X131946723Y-137728094D02*
X131851485Y-137680475D01*
X131851485Y-137680475D02*
X131803866Y-137585237D01*
X131803866Y-137585237D02*
X131803866Y-137347142D01*
X131803866Y-137347142D02*
X131756247Y-137251904D01*
X131518152Y-136775713D02*
X132184819Y-136775713D01*
X131613390Y-136775713D02*
X131565771Y-136728094D01*
X131565771Y-136728094D02*
X131518152Y-136632856D01*
X131518152Y-136632856D02*
X131518152Y-136489999D01*
X131518152Y-136489999D02*
X131565771Y-136394761D01*
X131565771Y-136394761D02*
X131661009Y-136347142D01*
X131661009Y-136347142D02*
X132184819Y-136347142D01*
X132184819Y-135728094D02*
X132137200Y-135823332D01*
X132137200Y-135823332D02*
X132089580Y-135870951D01*
X132089580Y-135870951D02*
X131994342Y-135918570D01*
X131994342Y-135918570D02*
X131708628Y-135918570D01*
X131708628Y-135918570D02*
X131613390Y-135870951D01*
X131613390Y-135870951D02*
X131565771Y-135823332D01*
X131565771Y-135823332D02*
X131518152Y-135728094D01*
X131518152Y-135728094D02*
X131518152Y-135585237D01*
X131518152Y-135585237D02*
X131565771Y-135489999D01*
X131565771Y-135489999D02*
X131613390Y-135442380D01*
X131613390Y-135442380D02*
X131708628Y-135394761D01*
X131708628Y-135394761D02*
X131994342Y-135394761D01*
X131994342Y-135394761D02*
X132089580Y-135442380D01*
X132089580Y-135442380D02*
X132137200Y-135489999D01*
X132137200Y-135489999D02*
X132184819Y-135585237D01*
X132184819Y-135585237D02*
X132184819Y-135728094D01*
X132280057Y-135204285D02*
X132280057Y-134442380D01*
X131661009Y-134204284D02*
X131661009Y-133870951D01*
X132184819Y-133728094D02*
X132184819Y-134204284D01*
X132184819Y-134204284D02*
X131184819Y-134204284D01*
X131184819Y-134204284D02*
X131184819Y-133728094D01*
X132137200Y-133347141D02*
X132184819Y-133204284D01*
X132184819Y-133204284D02*
X132184819Y-132966189D01*
X132184819Y-132966189D02*
X132137200Y-132870951D01*
X132137200Y-132870951D02*
X132089580Y-132823332D01*
X132089580Y-132823332D02*
X131994342Y-132775713D01*
X131994342Y-132775713D02*
X131899104Y-132775713D01*
X131899104Y-132775713D02*
X131803866Y-132823332D01*
X131803866Y-132823332D02*
X131756247Y-132870951D01*
X131756247Y-132870951D02*
X131708628Y-132966189D01*
X131708628Y-132966189D02*
X131661009Y-133156665D01*
X131661009Y-133156665D02*
X131613390Y-133251903D01*
X131613390Y-133251903D02*
X131565771Y-133299522D01*
X131565771Y-133299522D02*
X131470533Y-133347141D01*
X131470533Y-133347141D02*
X131375295Y-133347141D01*
X131375295Y-133347141D02*
X131280057Y-133299522D01*
X131280057Y-133299522D02*
X131232438Y-133251903D01*
X131232438Y-133251903D02*
X131184819Y-133156665D01*
X131184819Y-133156665D02*
X131184819Y-132918570D01*
X131184819Y-132918570D02*
X131232438Y-132775713D01*
X132184819Y-132347141D02*
X131184819Y-132347141D01*
X131184819Y-132347141D02*
X131184819Y-131966189D01*
X131184819Y-131966189D02*
X131232438Y-131870951D01*
X131232438Y-131870951D02*
X131280057Y-131823332D01*
X131280057Y-131823332D02*
X131375295Y-131775713D01*
X131375295Y-131775713D02*
X131518152Y-131775713D01*
X131518152Y-131775713D02*
X131613390Y-131823332D01*
X131613390Y-131823332D02*
X131661009Y-131870951D01*
X131661009Y-131870951D02*
X131708628Y-131966189D01*
X131708628Y-131966189D02*
X131708628Y-132347141D01*
X131184819Y-131442379D02*
X131184819Y-130823332D01*
X131184819Y-130823332D02*
X131565771Y-131156665D01*
X131565771Y-131156665D02*
X131565771Y-131013808D01*
X131565771Y-131013808D02*
X131613390Y-130918570D01*
X131613390Y-130918570D02*
X131661009Y-130870951D01*
X131661009Y-130870951D02*
X131756247Y-130823332D01*
X131756247Y-130823332D02*
X131994342Y-130823332D01*
X131994342Y-130823332D02*
X132089580Y-130870951D01*
X132089580Y-130870951D02*
X132137200Y-130918570D01*
X132137200Y-130918570D02*
X132184819Y-131013808D01*
X132184819Y-131013808D02*
X132184819Y-131299522D01*
X132184819Y-131299522D02*
X132137200Y-131394760D01*
X132137200Y-131394760D02*
X132089580Y-131442379D01*
X131280057Y-130442379D02*
X131232438Y-130394760D01*
X131232438Y-130394760D02*
X131184819Y-130299522D01*
X131184819Y-130299522D02*
X131184819Y-130061427D01*
X131184819Y-130061427D02*
X131232438Y-129966189D01*
X131232438Y-129966189D02*
X131280057Y-129918570D01*
X131280057Y-129918570D02*
X131375295Y-129870951D01*
X131375295Y-129870951D02*
X131470533Y-129870951D01*
X131470533Y-129870951D02*
X131613390Y-129918570D01*
X131613390Y-129918570D02*
X132184819Y-130489998D01*
X132184819Y-130489998D02*
X132184819Y-129870951D01*
X129198095Y-153454819D02*
X129198095Y-154264342D01*
X129198095Y-154264342D02*
X129245714Y-154359580D01*
X129245714Y-154359580D02*
X129293333Y-154407200D01*
X129293333Y-154407200D02*
X129388571Y-154454819D01*
X129388571Y-154454819D02*
X129579047Y-154454819D01*
X129579047Y-154454819D02*
X129674285Y-154407200D01*
X129674285Y-154407200D02*
X129721904Y-154359580D01*
X129721904Y-154359580D02*
X129769523Y-154264342D01*
X129769523Y-154264342D02*
X129769523Y-153454819D01*
X130198095Y-154407200D02*
X130340952Y-154454819D01*
X130340952Y-154454819D02*
X130579047Y-154454819D01*
X130579047Y-154454819D02*
X130674285Y-154407200D01*
X130674285Y-154407200D02*
X130721904Y-154359580D01*
X130721904Y-154359580D02*
X130769523Y-154264342D01*
X130769523Y-154264342D02*
X130769523Y-154169104D01*
X130769523Y-154169104D02*
X130721904Y-154073866D01*
X130721904Y-154073866D02*
X130674285Y-154026247D01*
X130674285Y-154026247D02*
X130579047Y-153978628D01*
X130579047Y-153978628D02*
X130388571Y-153931009D01*
X130388571Y-153931009D02*
X130293333Y-153883390D01*
X130293333Y-153883390D02*
X130245714Y-153835771D01*
X130245714Y-153835771D02*
X130198095Y-153740533D01*
X130198095Y-153740533D02*
X130198095Y-153645295D01*
X130198095Y-153645295D02*
X130245714Y-153550057D01*
X130245714Y-153550057D02*
X130293333Y-153502438D01*
X130293333Y-153502438D02*
X130388571Y-153454819D01*
X130388571Y-153454819D02*
X130626666Y-153454819D01*
X130626666Y-153454819D02*
X130769523Y-153502438D01*
X131531428Y-153931009D02*
X131674285Y-153978628D01*
X131674285Y-153978628D02*
X131721904Y-154026247D01*
X131721904Y-154026247D02*
X131769523Y-154121485D01*
X131769523Y-154121485D02*
X131769523Y-154264342D01*
X131769523Y-154264342D02*
X131721904Y-154359580D01*
X131721904Y-154359580D02*
X131674285Y-154407200D01*
X131674285Y-154407200D02*
X131579047Y-154454819D01*
X131579047Y-154454819D02*
X131198095Y-154454819D01*
X131198095Y-154454819D02*
X131198095Y-153454819D01*
X131198095Y-153454819D02*
X131531428Y-153454819D01*
X131531428Y-153454819D02*
X131626666Y-153502438D01*
X131626666Y-153502438D02*
X131674285Y-153550057D01*
X131674285Y-153550057D02*
X131721904Y-153645295D01*
X131721904Y-153645295D02*
X131721904Y-153740533D01*
X131721904Y-153740533D02*
X131674285Y-153835771D01*
X131674285Y-153835771D02*
X131626666Y-153883390D01*
X131626666Y-153883390D02*
X131531428Y-153931009D01*
X131531428Y-153931009D02*
X131198095Y-153931009D01*
X67770476Y-141073200D02*
X67913333Y-141120819D01*
X67913333Y-141120819D02*
X68151428Y-141120819D01*
X68151428Y-141120819D02*
X68246666Y-141073200D01*
X68246666Y-141073200D02*
X68294285Y-141025580D01*
X68294285Y-141025580D02*
X68341904Y-140930342D01*
X68341904Y-140930342D02*
X68341904Y-140835104D01*
X68341904Y-140835104D02*
X68294285Y-140739866D01*
X68294285Y-140739866D02*
X68246666Y-140692247D01*
X68246666Y-140692247D02*
X68151428Y-140644628D01*
X68151428Y-140644628D02*
X67960952Y-140597009D01*
X67960952Y-140597009D02*
X67865714Y-140549390D01*
X67865714Y-140549390D02*
X67818095Y-140501771D01*
X67818095Y-140501771D02*
X67770476Y-140406533D01*
X67770476Y-140406533D02*
X67770476Y-140311295D01*
X67770476Y-140311295D02*
X67818095Y-140216057D01*
X67818095Y-140216057D02*
X67865714Y-140168438D01*
X67865714Y-140168438D02*
X67960952Y-140120819D01*
X67960952Y-140120819D02*
X68199047Y-140120819D01*
X68199047Y-140120819D02*
X68341904Y-140168438D01*
X68675238Y-140120819D02*
X68913333Y-141120819D01*
X68913333Y-141120819D02*
X69103809Y-140406533D01*
X69103809Y-140406533D02*
X69294285Y-141120819D01*
X69294285Y-141120819D02*
X69532381Y-140120819D01*
X70437142Y-141120819D02*
X69865714Y-141120819D01*
X70151428Y-141120819D02*
X70151428Y-140120819D01*
X70151428Y-140120819D02*
X70056190Y-140263676D01*
X70056190Y-140263676D02*
X69960952Y-140358914D01*
X69960952Y-140358914D02*
X69865714Y-140406533D01*
X71056190Y-140120819D02*
X71151428Y-140120819D01*
X71151428Y-140120819D02*
X71246666Y-140168438D01*
X71246666Y-140168438D02*
X71294285Y-140216057D01*
X71294285Y-140216057D02*
X71341904Y-140311295D01*
X71341904Y-140311295D02*
X71389523Y-140501771D01*
X71389523Y-140501771D02*
X71389523Y-140739866D01*
X71389523Y-140739866D02*
X71341904Y-140930342D01*
X71341904Y-140930342D02*
X71294285Y-141025580D01*
X71294285Y-141025580D02*
X71246666Y-141073200D01*
X71246666Y-141073200D02*
X71151428Y-141120819D01*
X71151428Y-141120819D02*
X71056190Y-141120819D01*
X71056190Y-141120819D02*
X70960952Y-141073200D01*
X70960952Y-141073200D02*
X70913333Y-141025580D01*
X70913333Y-141025580D02*
X70865714Y-140930342D01*
X70865714Y-140930342D02*
X70818095Y-140739866D01*
X70818095Y-140739866D02*
X70818095Y-140501771D01*
X70818095Y-140501771D02*
X70865714Y-140311295D01*
X70865714Y-140311295D02*
X70913333Y-140216057D01*
X70913333Y-140216057D02*
X70960952Y-140168438D01*
X70960952Y-140168438D02*
X71056190Y-140120819D01*
X68246667Y-84073200D02*
X68389524Y-84120819D01*
X68389524Y-84120819D02*
X68627619Y-84120819D01*
X68627619Y-84120819D02*
X68722857Y-84073200D01*
X68722857Y-84073200D02*
X68770476Y-84025580D01*
X68770476Y-84025580D02*
X68818095Y-83930342D01*
X68818095Y-83930342D02*
X68818095Y-83835104D01*
X68818095Y-83835104D02*
X68770476Y-83739866D01*
X68770476Y-83739866D02*
X68722857Y-83692247D01*
X68722857Y-83692247D02*
X68627619Y-83644628D01*
X68627619Y-83644628D02*
X68437143Y-83597009D01*
X68437143Y-83597009D02*
X68341905Y-83549390D01*
X68341905Y-83549390D02*
X68294286Y-83501771D01*
X68294286Y-83501771D02*
X68246667Y-83406533D01*
X68246667Y-83406533D02*
X68246667Y-83311295D01*
X68246667Y-83311295D02*
X68294286Y-83216057D01*
X68294286Y-83216057D02*
X68341905Y-83168438D01*
X68341905Y-83168438D02*
X68437143Y-83120819D01*
X68437143Y-83120819D02*
X68675238Y-83120819D01*
X68675238Y-83120819D02*
X68818095Y-83168438D01*
X69151429Y-83120819D02*
X69389524Y-84120819D01*
X69389524Y-84120819D02*
X69580000Y-83406533D01*
X69580000Y-83406533D02*
X69770476Y-84120819D01*
X69770476Y-84120819D02*
X70008572Y-83120819D01*
X70913333Y-84120819D02*
X70341905Y-84120819D01*
X70627619Y-84120819D02*
X70627619Y-83120819D01*
X70627619Y-83120819D02*
X70532381Y-83263676D01*
X70532381Y-83263676D02*
X70437143Y-83358914D01*
X70437143Y-83358914D02*
X70341905Y-83406533D01*
X91243095Y-55609819D02*
X91243095Y-56419342D01*
X91243095Y-56419342D02*
X91290714Y-56514580D01*
X91290714Y-56514580D02*
X91338333Y-56562200D01*
X91338333Y-56562200D02*
X91433571Y-56609819D01*
X91433571Y-56609819D02*
X91624047Y-56609819D01*
X91624047Y-56609819D02*
X91719285Y-56562200D01*
X91719285Y-56562200D02*
X91766904Y-56514580D01*
X91766904Y-56514580D02*
X91814523Y-56419342D01*
X91814523Y-56419342D02*
X91814523Y-55609819D01*
X92243095Y-55705057D02*
X92290714Y-55657438D01*
X92290714Y-55657438D02*
X92385952Y-55609819D01*
X92385952Y-55609819D02*
X92624047Y-55609819D01*
X92624047Y-55609819D02*
X92719285Y-55657438D01*
X92719285Y-55657438D02*
X92766904Y-55705057D01*
X92766904Y-55705057D02*
X92814523Y-55800295D01*
X92814523Y-55800295D02*
X92814523Y-55895533D01*
X92814523Y-55895533D02*
X92766904Y-56038390D01*
X92766904Y-56038390D02*
X92195476Y-56609819D01*
X92195476Y-56609819D02*
X92814523Y-56609819D01*
X95140952Y-76379819D02*
X95140952Y-75379819D01*
X95140952Y-75856009D02*
X95712380Y-75856009D01*
X95712380Y-76379819D02*
X95712380Y-75379819D01*
X96664761Y-76379819D02*
X96188571Y-76379819D01*
X96188571Y-76379819D02*
X96188571Y-75379819D01*
X96998095Y-76379819D02*
X96998095Y-75379819D01*
X97569523Y-76379819D02*
X97140952Y-75808390D01*
X97569523Y-75379819D02*
X96998095Y-75951247D01*
X97998095Y-75998866D02*
X98760000Y-75998866D01*
X99712380Y-76379819D02*
X99236190Y-76379819D01*
X99236190Y-76379819D02*
X99236190Y-75379819D01*
X100045714Y-76379819D02*
X100045714Y-75379819D01*
X100045714Y-75379819D02*
X100283809Y-75379819D01*
X100283809Y-75379819D02*
X100426666Y-75427438D01*
X100426666Y-75427438D02*
X100521904Y-75522676D01*
X100521904Y-75522676D02*
X100569523Y-75617914D01*
X100569523Y-75617914D02*
X100617142Y-75808390D01*
X100617142Y-75808390D02*
X100617142Y-75951247D01*
X100617142Y-75951247D02*
X100569523Y-76141723D01*
X100569523Y-76141723D02*
X100521904Y-76236961D01*
X100521904Y-76236961D02*
X100426666Y-76332200D01*
X100426666Y-76332200D02*
X100283809Y-76379819D01*
X100283809Y-76379819D02*
X100045714Y-76379819D01*
X100998095Y-75475057D02*
X101045714Y-75427438D01*
X101045714Y-75427438D02*
X101140952Y-75379819D01*
X101140952Y-75379819D02*
X101379047Y-75379819D01*
X101379047Y-75379819D02*
X101474285Y-75427438D01*
X101474285Y-75427438D02*
X101521904Y-75475057D01*
X101521904Y-75475057D02*
X101569523Y-75570295D01*
X101569523Y-75570295D02*
X101569523Y-75665533D01*
X101569523Y-75665533D02*
X101521904Y-75808390D01*
X101521904Y-75808390D02*
X100950476Y-76379819D01*
X100950476Y-76379819D02*
X101569523Y-76379819D01*
X102426666Y-75713152D02*
X102426666Y-76379819D01*
X102188571Y-75332200D02*
X101950476Y-76046485D01*
X101950476Y-76046485D02*
X102569523Y-76046485D01*
X103474285Y-76379819D02*
X102902857Y-76379819D01*
X103188571Y-76379819D02*
X103188571Y-75379819D01*
X103188571Y-75379819D02*
X103093333Y-75522676D01*
X103093333Y-75522676D02*
X102998095Y-75617914D01*
X102998095Y-75617914D02*
X102902857Y-75665533D01*
X104093333Y-75379819D02*
X104188571Y-75379819D01*
X104188571Y-75379819D02*
X104283809Y-75427438D01*
X104283809Y-75427438D02*
X104331428Y-75475057D01*
X104331428Y-75475057D02*
X104379047Y-75570295D01*
X104379047Y-75570295D02*
X104426666Y-75760771D01*
X104426666Y-75760771D02*
X104426666Y-75998866D01*
X104426666Y-75998866D02*
X104379047Y-76189342D01*
X104379047Y-76189342D02*
X104331428Y-76284580D01*
X104331428Y-76284580D02*
X104283809Y-76332200D01*
X104283809Y-76332200D02*
X104188571Y-76379819D01*
X104188571Y-76379819D02*
X104093333Y-76379819D01*
X104093333Y-76379819D02*
X103998095Y-76332200D01*
X103998095Y-76332200D02*
X103950476Y-76284580D01*
X103950476Y-76284580D02*
X103902857Y-76189342D01*
X103902857Y-76189342D02*
X103855238Y-75998866D01*
X103855238Y-75998866D02*
X103855238Y-75760771D01*
X103855238Y-75760771D02*
X103902857Y-75570295D01*
X103902857Y-75570295D02*
X103950476Y-75475057D01*
X103950476Y-75475057D02*
X103998095Y-75427438D01*
X103998095Y-75427438D02*
X104093333Y-75379819D01*
X105426666Y-76284580D02*
X105379047Y-76332200D01*
X105379047Y-76332200D02*
X105236190Y-76379819D01*
X105236190Y-76379819D02*
X105140952Y-76379819D01*
X105140952Y-76379819D02*
X104998095Y-76332200D01*
X104998095Y-76332200D02*
X104902857Y-76236961D01*
X104902857Y-76236961D02*
X104855238Y-76141723D01*
X104855238Y-76141723D02*
X104807619Y-75951247D01*
X104807619Y-75951247D02*
X104807619Y-75808390D01*
X104807619Y-75808390D02*
X104855238Y-75617914D01*
X104855238Y-75617914D02*
X104902857Y-75522676D01*
X104902857Y-75522676D02*
X104998095Y-75427438D01*
X104998095Y-75427438D02*
X105140952Y-75379819D01*
X105140952Y-75379819D02*
X105236190Y-75379819D01*
X105236190Y-75379819D02*
X105379047Y-75427438D01*
X105379047Y-75427438D02*
X105426666Y-75475057D01*
X63068095Y-51724819D02*
X63068095Y-52534342D01*
X63068095Y-52534342D02*
X63115714Y-52629580D01*
X63115714Y-52629580D02*
X63163333Y-52677200D01*
X63163333Y-52677200D02*
X63258571Y-52724819D01*
X63258571Y-52724819D02*
X63449047Y-52724819D01*
X63449047Y-52724819D02*
X63544285Y-52677200D01*
X63544285Y-52677200D02*
X63591904Y-52629580D01*
X63591904Y-52629580D02*
X63639523Y-52534342D01*
X63639523Y-52534342D02*
X63639523Y-51724819D01*
X64639523Y-52724819D02*
X64068095Y-52724819D01*
X64353809Y-52724819D02*
X64353809Y-51724819D01*
X64353809Y-51724819D02*
X64258571Y-51867676D01*
X64258571Y-51867676D02*
X64163333Y-51962914D01*
X64163333Y-51962914D02*
X64068095Y-52010533D01*
X67180476Y-80664819D02*
X67180476Y-79664819D01*
X67180476Y-79664819D02*
X67418571Y-79664819D01*
X67418571Y-79664819D02*
X67561428Y-79712438D01*
X67561428Y-79712438D02*
X67656666Y-79807676D01*
X67656666Y-79807676D02*
X67704285Y-79902914D01*
X67704285Y-79902914D02*
X67751904Y-80093390D01*
X67751904Y-80093390D02*
X67751904Y-80236247D01*
X67751904Y-80236247D02*
X67704285Y-80426723D01*
X67704285Y-80426723D02*
X67656666Y-80521961D01*
X67656666Y-80521961D02*
X67561428Y-80617200D01*
X67561428Y-80617200D02*
X67418571Y-80664819D01*
X67418571Y-80664819D02*
X67180476Y-80664819D01*
X68180476Y-80664819D02*
X68180476Y-79664819D01*
X68180476Y-79664819D02*
X68513809Y-80379104D01*
X68513809Y-80379104D02*
X68847142Y-79664819D01*
X68847142Y-79664819D02*
X68847142Y-80664819D01*
X69323333Y-80283866D02*
X70085238Y-80283866D01*
X70751904Y-79664819D02*
X70942380Y-79664819D01*
X70942380Y-79664819D02*
X71037618Y-79712438D01*
X71037618Y-79712438D02*
X71132856Y-79807676D01*
X71132856Y-79807676D02*
X71180475Y-79998152D01*
X71180475Y-79998152D02*
X71180475Y-80331485D01*
X71180475Y-80331485D02*
X71132856Y-80521961D01*
X71132856Y-80521961D02*
X71037618Y-80617200D01*
X71037618Y-80617200D02*
X70942380Y-80664819D01*
X70942380Y-80664819D02*
X70751904Y-80664819D01*
X70751904Y-80664819D02*
X70656666Y-80617200D01*
X70656666Y-80617200D02*
X70561428Y-80521961D01*
X70561428Y-80521961D02*
X70513809Y-80331485D01*
X70513809Y-80331485D02*
X70513809Y-79998152D01*
X70513809Y-79998152D02*
X70561428Y-79807676D01*
X70561428Y-79807676D02*
X70656666Y-79712438D01*
X70656666Y-79712438D02*
X70751904Y-79664819D01*
X72085237Y-80664819D02*
X71609047Y-80664819D01*
X71609047Y-80664819D02*
X71609047Y-79664819D01*
X72418571Y-80141009D02*
X72751904Y-80141009D01*
X72894761Y-80664819D02*
X72418571Y-80664819D01*
X72418571Y-80664819D02*
X72418571Y-79664819D01*
X72418571Y-79664819D02*
X72894761Y-79664819D01*
X73323333Y-80664819D02*
X73323333Y-79664819D01*
X73323333Y-79664819D02*
X73561428Y-79664819D01*
X73561428Y-79664819D02*
X73704285Y-79712438D01*
X73704285Y-79712438D02*
X73799523Y-79807676D01*
X73799523Y-79807676D02*
X73847142Y-79902914D01*
X73847142Y-79902914D02*
X73894761Y-80093390D01*
X73894761Y-80093390D02*
X73894761Y-80236247D01*
X73894761Y-80236247D02*
X73847142Y-80426723D01*
X73847142Y-80426723D02*
X73799523Y-80521961D01*
X73799523Y-80521961D02*
X73704285Y-80617200D01*
X73704285Y-80617200D02*
X73561428Y-80664819D01*
X73561428Y-80664819D02*
X73323333Y-80664819D01*
X74513809Y-79664819D02*
X74609047Y-79664819D01*
X74609047Y-79664819D02*
X74704285Y-79712438D01*
X74704285Y-79712438D02*
X74751904Y-79760057D01*
X74751904Y-79760057D02*
X74799523Y-79855295D01*
X74799523Y-79855295D02*
X74847142Y-80045771D01*
X74847142Y-80045771D02*
X74847142Y-80283866D01*
X74847142Y-80283866D02*
X74799523Y-80474342D01*
X74799523Y-80474342D02*
X74751904Y-80569580D01*
X74751904Y-80569580D02*
X74704285Y-80617200D01*
X74704285Y-80617200D02*
X74609047Y-80664819D01*
X74609047Y-80664819D02*
X74513809Y-80664819D01*
X74513809Y-80664819D02*
X74418571Y-80617200D01*
X74418571Y-80617200D02*
X74370952Y-80569580D01*
X74370952Y-80569580D02*
X74323333Y-80474342D01*
X74323333Y-80474342D02*
X74275714Y-80283866D01*
X74275714Y-80283866D02*
X74275714Y-80045771D01*
X74275714Y-80045771D02*
X74323333Y-79855295D01*
X74323333Y-79855295D02*
X74370952Y-79760057D01*
X74370952Y-79760057D02*
X74418571Y-79712438D01*
X74418571Y-79712438D02*
X74513809Y-79664819D01*
X75323333Y-80664819D02*
X75513809Y-80664819D01*
X75513809Y-80664819D02*
X75609047Y-80617200D01*
X75609047Y-80617200D02*
X75656666Y-80569580D01*
X75656666Y-80569580D02*
X75751904Y-80426723D01*
X75751904Y-80426723D02*
X75799523Y-80236247D01*
X75799523Y-80236247D02*
X75799523Y-79855295D01*
X75799523Y-79855295D02*
X75751904Y-79760057D01*
X75751904Y-79760057D02*
X75704285Y-79712438D01*
X75704285Y-79712438D02*
X75609047Y-79664819D01*
X75609047Y-79664819D02*
X75418571Y-79664819D01*
X75418571Y-79664819D02*
X75323333Y-79712438D01*
X75323333Y-79712438D02*
X75275714Y-79760057D01*
X75275714Y-79760057D02*
X75228095Y-79855295D01*
X75228095Y-79855295D02*
X75228095Y-80093390D01*
X75228095Y-80093390D02*
X75275714Y-80188628D01*
X75275714Y-80188628D02*
X75323333Y-80236247D01*
X75323333Y-80236247D02*
X75418571Y-80283866D01*
X75418571Y-80283866D02*
X75609047Y-80283866D01*
X75609047Y-80283866D02*
X75704285Y-80236247D01*
X75704285Y-80236247D02*
X75751904Y-80188628D01*
X75751904Y-80188628D02*
X75799523Y-80093390D01*
X76656666Y-79664819D02*
X76466190Y-79664819D01*
X76466190Y-79664819D02*
X76370952Y-79712438D01*
X76370952Y-79712438D02*
X76323333Y-79760057D01*
X76323333Y-79760057D02*
X76228095Y-79902914D01*
X76228095Y-79902914D02*
X76180476Y-80093390D01*
X76180476Y-80093390D02*
X76180476Y-80474342D01*
X76180476Y-80474342D02*
X76228095Y-80569580D01*
X76228095Y-80569580D02*
X76275714Y-80617200D01*
X76275714Y-80617200D02*
X76370952Y-80664819D01*
X76370952Y-80664819D02*
X76561428Y-80664819D01*
X76561428Y-80664819D02*
X76656666Y-80617200D01*
X76656666Y-80617200D02*
X76704285Y-80569580D01*
X76704285Y-80569580D02*
X76751904Y-80474342D01*
X76751904Y-80474342D02*
X76751904Y-80236247D01*
X76751904Y-80236247D02*
X76704285Y-80141009D01*
X76704285Y-80141009D02*
X76656666Y-80093390D01*
X76656666Y-80093390D02*
X76561428Y-80045771D01*
X76561428Y-80045771D02*
X76370952Y-80045771D01*
X76370952Y-80045771D02*
X76275714Y-80093390D01*
X76275714Y-80093390D02*
X76228095Y-80141009D01*
X76228095Y-80141009D02*
X76180476Y-80236247D01*
X77180476Y-80283866D02*
X77942381Y-80283866D01*
X78847142Y-79664819D02*
X78656666Y-79664819D01*
X78656666Y-79664819D02*
X78561428Y-79712438D01*
X78561428Y-79712438D02*
X78513809Y-79760057D01*
X78513809Y-79760057D02*
X78418571Y-79902914D01*
X78418571Y-79902914D02*
X78370952Y-80093390D01*
X78370952Y-80093390D02*
X78370952Y-80474342D01*
X78370952Y-80474342D02*
X78418571Y-80569580D01*
X78418571Y-80569580D02*
X78466190Y-80617200D01*
X78466190Y-80617200D02*
X78561428Y-80664819D01*
X78561428Y-80664819D02*
X78751904Y-80664819D01*
X78751904Y-80664819D02*
X78847142Y-80617200D01*
X78847142Y-80617200D02*
X78894761Y-80569580D01*
X78894761Y-80569580D02*
X78942380Y-80474342D01*
X78942380Y-80474342D02*
X78942380Y-80236247D01*
X78942380Y-80236247D02*
X78894761Y-80141009D01*
X78894761Y-80141009D02*
X78847142Y-80093390D01*
X78847142Y-80093390D02*
X78751904Y-80045771D01*
X78751904Y-80045771D02*
X78561428Y-80045771D01*
X78561428Y-80045771D02*
X78466190Y-80093390D01*
X78466190Y-80093390D02*
X78418571Y-80141009D01*
X78418571Y-80141009D02*
X78370952Y-80236247D01*
X79275714Y-79664819D02*
X79894761Y-79664819D01*
X79894761Y-79664819D02*
X79561428Y-80045771D01*
X79561428Y-80045771D02*
X79704285Y-80045771D01*
X79704285Y-80045771D02*
X79799523Y-80093390D01*
X79799523Y-80093390D02*
X79847142Y-80141009D01*
X79847142Y-80141009D02*
X79894761Y-80236247D01*
X79894761Y-80236247D02*
X79894761Y-80474342D01*
X79894761Y-80474342D02*
X79847142Y-80569580D01*
X79847142Y-80569580D02*
X79799523Y-80617200D01*
X79799523Y-80617200D02*
X79704285Y-80664819D01*
X79704285Y-80664819D02*
X79418571Y-80664819D01*
X79418571Y-80664819D02*
X79323333Y-80617200D01*
X79323333Y-80617200D02*
X79275714Y-80569580D01*
X80751904Y-79664819D02*
X80561428Y-79664819D01*
X80561428Y-79664819D02*
X80466190Y-79712438D01*
X80466190Y-79712438D02*
X80418571Y-79760057D01*
X80418571Y-79760057D02*
X80323333Y-79902914D01*
X80323333Y-79902914D02*
X80275714Y-80093390D01*
X80275714Y-80093390D02*
X80275714Y-80474342D01*
X80275714Y-80474342D02*
X80323333Y-80569580D01*
X80323333Y-80569580D02*
X80370952Y-80617200D01*
X80370952Y-80617200D02*
X80466190Y-80664819D01*
X80466190Y-80664819D02*
X80656666Y-80664819D01*
X80656666Y-80664819D02*
X80751904Y-80617200D01*
X80751904Y-80617200D02*
X80799523Y-80569580D01*
X80799523Y-80569580D02*
X80847142Y-80474342D01*
X80847142Y-80474342D02*
X80847142Y-80236247D01*
X80847142Y-80236247D02*
X80799523Y-80141009D01*
X80799523Y-80141009D02*
X80751904Y-80093390D01*
X80751904Y-80093390D02*
X80656666Y-80045771D01*
X80656666Y-80045771D02*
X80466190Y-80045771D01*
X80466190Y-80045771D02*
X80370952Y-80093390D01*
X80370952Y-80093390D02*
X80323333Y-80141009D01*
X80323333Y-80141009D02*
X80275714Y-80236247D01*
X87246667Y-103073200D02*
X87389524Y-103120819D01*
X87389524Y-103120819D02*
X87627619Y-103120819D01*
X87627619Y-103120819D02*
X87722857Y-103073200D01*
X87722857Y-103073200D02*
X87770476Y-103025580D01*
X87770476Y-103025580D02*
X87818095Y-102930342D01*
X87818095Y-102930342D02*
X87818095Y-102835104D01*
X87818095Y-102835104D02*
X87770476Y-102739866D01*
X87770476Y-102739866D02*
X87722857Y-102692247D01*
X87722857Y-102692247D02*
X87627619Y-102644628D01*
X87627619Y-102644628D02*
X87437143Y-102597009D01*
X87437143Y-102597009D02*
X87341905Y-102549390D01*
X87341905Y-102549390D02*
X87294286Y-102501771D01*
X87294286Y-102501771D02*
X87246667Y-102406533D01*
X87246667Y-102406533D02*
X87246667Y-102311295D01*
X87246667Y-102311295D02*
X87294286Y-102216057D01*
X87294286Y-102216057D02*
X87341905Y-102168438D01*
X87341905Y-102168438D02*
X87437143Y-102120819D01*
X87437143Y-102120819D02*
X87675238Y-102120819D01*
X87675238Y-102120819D02*
X87818095Y-102168438D01*
X88151429Y-102120819D02*
X88389524Y-103120819D01*
X88389524Y-103120819D02*
X88580000Y-102406533D01*
X88580000Y-102406533D02*
X88770476Y-103120819D01*
X88770476Y-103120819D02*
X89008572Y-102120819D01*
X89865714Y-102120819D02*
X89389524Y-102120819D01*
X89389524Y-102120819D02*
X89341905Y-102597009D01*
X89341905Y-102597009D02*
X89389524Y-102549390D01*
X89389524Y-102549390D02*
X89484762Y-102501771D01*
X89484762Y-102501771D02*
X89722857Y-102501771D01*
X89722857Y-102501771D02*
X89818095Y-102549390D01*
X89818095Y-102549390D02*
X89865714Y-102597009D01*
X89865714Y-102597009D02*
X89913333Y-102692247D01*
X89913333Y-102692247D02*
X89913333Y-102930342D01*
X89913333Y-102930342D02*
X89865714Y-103025580D01*
X89865714Y-103025580D02*
X89818095Y-103073200D01*
X89818095Y-103073200D02*
X89722857Y-103120819D01*
X89722857Y-103120819D02*
X89484762Y-103120819D01*
X89484762Y-103120819D02*
X89389524Y-103073200D01*
X89389524Y-103073200D02*
X89341905Y-103025580D01*
X118719819Y-94736904D02*
X119529342Y-94736904D01*
X119529342Y-94736904D02*
X119624580Y-94689285D01*
X119624580Y-94689285D02*
X119672200Y-94641666D01*
X119672200Y-94641666D02*
X119719819Y-94546428D01*
X119719819Y-94546428D02*
X119719819Y-94355952D01*
X119719819Y-94355952D02*
X119672200Y-94260714D01*
X119672200Y-94260714D02*
X119624580Y-94213095D01*
X119624580Y-94213095D02*
X119529342Y-94165476D01*
X119529342Y-94165476D02*
X118719819Y-94165476D01*
X118719819Y-93784523D02*
X118719819Y-93165476D01*
X118719819Y-93165476D02*
X119100771Y-93498809D01*
X119100771Y-93498809D02*
X119100771Y-93355952D01*
X119100771Y-93355952D02*
X119148390Y-93260714D01*
X119148390Y-93260714D02*
X119196009Y-93213095D01*
X119196009Y-93213095D02*
X119291247Y-93165476D01*
X119291247Y-93165476D02*
X119529342Y-93165476D01*
X119529342Y-93165476D02*
X119624580Y-93213095D01*
X119624580Y-93213095D02*
X119672200Y-93260714D01*
X119672200Y-93260714D02*
X119719819Y-93355952D01*
X119719819Y-93355952D02*
X119719819Y-93641666D01*
X119719819Y-93641666D02*
X119672200Y-93736904D01*
X119672200Y-93736904D02*
X119624580Y-93784523D01*
X130954819Y-89845237D02*
X129954819Y-89845237D01*
X129954819Y-89845237D02*
X129954819Y-89607142D01*
X129954819Y-89607142D02*
X130002438Y-89464285D01*
X130002438Y-89464285D02*
X130097676Y-89369047D01*
X130097676Y-89369047D02*
X130192914Y-89321428D01*
X130192914Y-89321428D02*
X130383390Y-89273809D01*
X130383390Y-89273809D02*
X130526247Y-89273809D01*
X130526247Y-89273809D02*
X130716723Y-89321428D01*
X130716723Y-89321428D02*
X130811961Y-89369047D01*
X130811961Y-89369047D02*
X130907200Y-89464285D01*
X130907200Y-89464285D02*
X130954819Y-89607142D01*
X130954819Y-89607142D02*
X130954819Y-89845237D01*
X130431009Y-88511904D02*
X130431009Y-88845237D01*
X130954819Y-88845237D02*
X129954819Y-88845237D01*
X129954819Y-88845237D02*
X129954819Y-88369047D01*
X130954819Y-87416666D02*
X130478628Y-87749999D01*
X130954819Y-87988094D02*
X129954819Y-87988094D01*
X129954819Y-87988094D02*
X129954819Y-87607142D01*
X129954819Y-87607142D02*
X130002438Y-87511904D01*
X130002438Y-87511904D02*
X130050057Y-87464285D01*
X130050057Y-87464285D02*
X130145295Y-87416666D01*
X130145295Y-87416666D02*
X130288152Y-87416666D01*
X130288152Y-87416666D02*
X130383390Y-87464285D01*
X130383390Y-87464285D02*
X130431009Y-87511904D01*
X130431009Y-87511904D02*
X130478628Y-87607142D01*
X130478628Y-87607142D02*
X130478628Y-87988094D01*
X129954819Y-86797618D02*
X129954819Y-86702380D01*
X129954819Y-86702380D02*
X130002438Y-86607142D01*
X130002438Y-86607142D02*
X130050057Y-86559523D01*
X130050057Y-86559523D02*
X130145295Y-86511904D01*
X130145295Y-86511904D02*
X130335771Y-86464285D01*
X130335771Y-86464285D02*
X130573866Y-86464285D01*
X130573866Y-86464285D02*
X130764342Y-86511904D01*
X130764342Y-86511904D02*
X130859580Y-86559523D01*
X130859580Y-86559523D02*
X130907200Y-86607142D01*
X130907200Y-86607142D02*
X130954819Y-86702380D01*
X130954819Y-86702380D02*
X130954819Y-86797618D01*
X130954819Y-86797618D02*
X130907200Y-86892856D01*
X130907200Y-86892856D02*
X130859580Y-86940475D01*
X130859580Y-86940475D02*
X130764342Y-86988094D01*
X130764342Y-86988094D02*
X130573866Y-87035713D01*
X130573866Y-87035713D02*
X130335771Y-87035713D01*
X130335771Y-87035713D02*
X130145295Y-86988094D01*
X130145295Y-86988094D02*
X130050057Y-86940475D01*
X130050057Y-86940475D02*
X130002438Y-86892856D01*
X130002438Y-86892856D02*
X129954819Y-86797618D01*
X130050057Y-86083332D02*
X130002438Y-86035713D01*
X130002438Y-86035713D02*
X129954819Y-85940475D01*
X129954819Y-85940475D02*
X129954819Y-85702380D01*
X129954819Y-85702380D02*
X130002438Y-85607142D01*
X130002438Y-85607142D02*
X130050057Y-85559523D01*
X130050057Y-85559523D02*
X130145295Y-85511904D01*
X130145295Y-85511904D02*
X130240533Y-85511904D01*
X130240533Y-85511904D02*
X130383390Y-85559523D01*
X130383390Y-85559523D02*
X130954819Y-86130951D01*
X130954819Y-86130951D02*
X130954819Y-85511904D01*
X130954819Y-85035713D02*
X130954819Y-84845237D01*
X130954819Y-84845237D02*
X130907200Y-84749999D01*
X130907200Y-84749999D02*
X130859580Y-84702380D01*
X130859580Y-84702380D02*
X130716723Y-84607142D01*
X130716723Y-84607142D02*
X130526247Y-84559523D01*
X130526247Y-84559523D02*
X130145295Y-84559523D01*
X130145295Y-84559523D02*
X130050057Y-84607142D01*
X130050057Y-84607142D02*
X130002438Y-84654761D01*
X130002438Y-84654761D02*
X129954819Y-84749999D01*
X129954819Y-84749999D02*
X129954819Y-84940475D01*
X129954819Y-84940475D02*
X130002438Y-85035713D01*
X130002438Y-85035713D02*
X130050057Y-85083332D01*
X130050057Y-85083332D02*
X130145295Y-85130951D01*
X130145295Y-85130951D02*
X130383390Y-85130951D01*
X130383390Y-85130951D02*
X130478628Y-85083332D01*
X130478628Y-85083332D02*
X130526247Y-85035713D01*
X130526247Y-85035713D02*
X130573866Y-84940475D01*
X130573866Y-84940475D02*
X130573866Y-84749999D01*
X130573866Y-84749999D02*
X130526247Y-84654761D01*
X130526247Y-84654761D02*
X130478628Y-84607142D01*
X130478628Y-84607142D02*
X130383390Y-84559523D01*
X130954819Y-84083332D02*
X130954819Y-83892856D01*
X130954819Y-83892856D02*
X130907200Y-83797618D01*
X130907200Y-83797618D02*
X130859580Y-83749999D01*
X130859580Y-83749999D02*
X130716723Y-83654761D01*
X130716723Y-83654761D02*
X130526247Y-83607142D01*
X130526247Y-83607142D02*
X130145295Y-83607142D01*
X130145295Y-83607142D02*
X130050057Y-83654761D01*
X130050057Y-83654761D02*
X130002438Y-83702380D01*
X130002438Y-83702380D02*
X129954819Y-83797618D01*
X129954819Y-83797618D02*
X129954819Y-83988094D01*
X129954819Y-83988094D02*
X130002438Y-84083332D01*
X130002438Y-84083332D02*
X130050057Y-84130951D01*
X130050057Y-84130951D02*
X130145295Y-84178570D01*
X130145295Y-84178570D02*
X130383390Y-84178570D01*
X130383390Y-84178570D02*
X130478628Y-84130951D01*
X130478628Y-84130951D02*
X130526247Y-84083332D01*
X130526247Y-84083332D02*
X130573866Y-83988094D01*
X130573866Y-83988094D02*
X130573866Y-83797618D01*
X130573866Y-83797618D02*
X130526247Y-83702380D01*
X130526247Y-83702380D02*
X130478628Y-83654761D01*
X130478628Y-83654761D02*
X130383390Y-83607142D01*
X87246667Y-84073200D02*
X87389524Y-84120819D01*
X87389524Y-84120819D02*
X87627619Y-84120819D01*
X87627619Y-84120819D02*
X87722857Y-84073200D01*
X87722857Y-84073200D02*
X87770476Y-84025580D01*
X87770476Y-84025580D02*
X87818095Y-83930342D01*
X87818095Y-83930342D02*
X87818095Y-83835104D01*
X87818095Y-83835104D02*
X87770476Y-83739866D01*
X87770476Y-83739866D02*
X87722857Y-83692247D01*
X87722857Y-83692247D02*
X87627619Y-83644628D01*
X87627619Y-83644628D02*
X87437143Y-83597009D01*
X87437143Y-83597009D02*
X87341905Y-83549390D01*
X87341905Y-83549390D02*
X87294286Y-83501771D01*
X87294286Y-83501771D02*
X87246667Y-83406533D01*
X87246667Y-83406533D02*
X87246667Y-83311295D01*
X87246667Y-83311295D02*
X87294286Y-83216057D01*
X87294286Y-83216057D02*
X87341905Y-83168438D01*
X87341905Y-83168438D02*
X87437143Y-83120819D01*
X87437143Y-83120819D02*
X87675238Y-83120819D01*
X87675238Y-83120819D02*
X87818095Y-83168438D01*
X88151429Y-83120819D02*
X88389524Y-84120819D01*
X88389524Y-84120819D02*
X88580000Y-83406533D01*
X88580000Y-83406533D02*
X88770476Y-84120819D01*
X88770476Y-84120819D02*
X89008572Y-83120819D01*
X89341905Y-83216057D02*
X89389524Y-83168438D01*
X89389524Y-83168438D02*
X89484762Y-83120819D01*
X89484762Y-83120819D02*
X89722857Y-83120819D01*
X89722857Y-83120819D02*
X89818095Y-83168438D01*
X89818095Y-83168438D02*
X89865714Y-83216057D01*
X89865714Y-83216057D02*
X89913333Y-83311295D01*
X89913333Y-83311295D02*
X89913333Y-83406533D01*
X89913333Y-83406533D02*
X89865714Y-83549390D01*
X89865714Y-83549390D02*
X89294286Y-84120819D01*
X89294286Y-84120819D02*
X89913333Y-84120819D01*
X121689819Y-87066666D02*
X121213628Y-87399999D01*
X121689819Y-87638094D02*
X120689819Y-87638094D01*
X120689819Y-87638094D02*
X120689819Y-87257142D01*
X120689819Y-87257142D02*
X120737438Y-87161904D01*
X120737438Y-87161904D02*
X120785057Y-87114285D01*
X120785057Y-87114285D02*
X120880295Y-87066666D01*
X120880295Y-87066666D02*
X121023152Y-87066666D01*
X121023152Y-87066666D02*
X121118390Y-87114285D01*
X121118390Y-87114285D02*
X121166009Y-87161904D01*
X121166009Y-87161904D02*
X121213628Y-87257142D01*
X121213628Y-87257142D02*
X121213628Y-87638094D01*
X120785057Y-86685713D02*
X120737438Y-86638094D01*
X120737438Y-86638094D02*
X120689819Y-86542856D01*
X120689819Y-86542856D02*
X120689819Y-86304761D01*
X120689819Y-86304761D02*
X120737438Y-86209523D01*
X120737438Y-86209523D02*
X120785057Y-86161904D01*
X120785057Y-86161904D02*
X120880295Y-86114285D01*
X120880295Y-86114285D02*
X120975533Y-86114285D01*
X120975533Y-86114285D02*
X121118390Y-86161904D01*
X121118390Y-86161904D02*
X121689819Y-86733332D01*
X121689819Y-86733332D02*
X121689819Y-86114285D01*
X125291905Y-109474819D02*
X125291905Y-108474819D01*
X125291905Y-108474819D02*
X125530000Y-108474819D01*
X125530000Y-108474819D02*
X125672857Y-108522438D01*
X125672857Y-108522438D02*
X125768095Y-108617676D01*
X125768095Y-108617676D02*
X125815714Y-108712914D01*
X125815714Y-108712914D02*
X125863333Y-108903390D01*
X125863333Y-108903390D02*
X125863333Y-109046247D01*
X125863333Y-109046247D02*
X125815714Y-109236723D01*
X125815714Y-109236723D02*
X125768095Y-109331961D01*
X125768095Y-109331961D02*
X125672857Y-109427200D01*
X125672857Y-109427200D02*
X125530000Y-109474819D01*
X125530000Y-109474819D02*
X125291905Y-109474819D01*
X126815714Y-109474819D02*
X126244286Y-109474819D01*
X126530000Y-109474819D02*
X126530000Y-108474819D01*
X126530000Y-108474819D02*
X126434762Y-108617676D01*
X126434762Y-108617676D02*
X126339524Y-108712914D01*
X126339524Y-108712914D02*
X126244286Y-108760533D01*
X128124819Y-111016666D02*
X127648628Y-111349999D01*
X128124819Y-111588094D02*
X127124819Y-111588094D01*
X127124819Y-111588094D02*
X127124819Y-111207142D01*
X127124819Y-111207142D02*
X127172438Y-111111904D01*
X127172438Y-111111904D02*
X127220057Y-111064285D01*
X127220057Y-111064285D02*
X127315295Y-111016666D01*
X127315295Y-111016666D02*
X127458152Y-111016666D01*
X127458152Y-111016666D02*
X127553390Y-111064285D01*
X127553390Y-111064285D02*
X127601009Y-111111904D01*
X127601009Y-111111904D02*
X127648628Y-111207142D01*
X127648628Y-111207142D02*
X127648628Y-111588094D01*
X128124819Y-110064285D02*
X128124819Y-110635713D01*
X128124819Y-110349999D02*
X127124819Y-110349999D01*
X127124819Y-110349999D02*
X127267676Y-110445237D01*
X127267676Y-110445237D02*
X127362914Y-110540475D01*
X127362914Y-110540475D02*
X127410533Y-110635713D01*
%TO.C,D14*%
D13*
X132665000Y-109715000D02*
X132665000Y-111985000D01*
X132665000Y-111985000D02*
X136550000Y-111985000D01*
X136550000Y-109715000D02*
X132665000Y-109715000D01*
%TO.C,SW8*%
X81595000Y-122555000D02*
X95565000Y-122555000D01*
X81595000Y-136525000D02*
X81595000Y-122555000D01*
X95565000Y-122555000D02*
X95565000Y-136525000D01*
X95565000Y-136525000D02*
X81595000Y-136525000D01*
%TO.C,MK2*%
X129112500Y-105240000D02*
X129112500Y-101840000D01*
X129412500Y-101540000D02*
X131962500Y-101540000D01*
X131962500Y-101540000D02*
X131962500Y-105240000D01*
X131962500Y-105240000D02*
X129112500Y-105240000D01*
X129112500Y-101540000D02*
X128832500Y-101540000D01*
X129112500Y-101260000D01*
X129112500Y-101540000D01*
G36*
X129112500Y-101540000D02*
G01*
X128832500Y-101540000D01*
X129112500Y-101260000D01*
X129112500Y-101540000D01*
G37*
%TO.C,SW9*%
X100595000Y-122555000D02*
X114565000Y-122555000D01*
X100595000Y-136525000D02*
X100595000Y-122555000D01*
X114565000Y-122555000D02*
X114565000Y-136525000D01*
X114565000Y-136525000D02*
X100595000Y-136525000D01*
%TO.C,R3*%
X137590000Y-111727064D02*
X137590000Y-110272936D01*
X139410000Y-111727064D02*
X139410000Y-110272936D01*
%TO.C,SW3*%
X100595000Y-84555000D02*
X114565000Y-84555000D01*
X100595000Y-98525000D02*
X100595000Y-84555000D01*
X114565000Y-84555000D02*
X114565000Y-98525000D01*
X114565000Y-98525000D02*
X100595000Y-98525000D01*
%TO.C,SW4*%
X62595000Y-103555000D02*
X76565000Y-103555000D01*
X62595000Y-117525000D02*
X62595000Y-103555000D01*
X76565000Y-103555000D02*
X76565000Y-117525000D01*
X76565000Y-117525000D02*
X62595000Y-117525000D01*
%TO.C,SW11*%
X81595000Y-141555000D02*
X95565000Y-141555000D01*
X81595000Y-155525000D02*
X81595000Y-141555000D01*
X95565000Y-141555000D02*
X95565000Y-155525000D01*
X95565000Y-155525000D02*
X81595000Y-155525000D01*
%TO.C,LS1*%
D14*
X118000000Y-67100000D02*
X118000000Y-56500000D01*
X120200000Y-69500000D02*
X133800000Y-69500000D01*
X136000000Y-56500000D02*
X118000000Y-56500000D01*
X136000000Y-56500000D02*
X136000000Y-67100000D01*
%TO.C,SW6*%
D13*
X100595000Y-103555000D02*
X114565000Y-103555000D01*
X100595000Y-117525000D02*
X100595000Y-103555000D01*
X114565000Y-103555000D02*
X114565000Y-117525000D01*
X114565000Y-117525000D02*
X100595000Y-117525000D01*
%TO.C,SW12*%
X100595000Y-141555000D02*
X114565000Y-141555000D01*
X100595000Y-155525000D02*
X100595000Y-141555000D01*
X114565000Y-141555000D02*
X114565000Y-155525000D01*
X114565000Y-155525000D02*
X100595000Y-155525000D01*
%TO.C,SW7*%
X62595000Y-122555000D02*
X76565000Y-122555000D01*
X62595000Y-136525000D02*
X62595000Y-122555000D01*
X76565000Y-122555000D02*
X76565000Y-136525000D01*
X76565000Y-136525000D02*
X62595000Y-136525000D01*
%TO.C,A1*%
X121440000Y-114500000D02*
X121440000Y-117170000D01*
X121440000Y-119710000D02*
X121440000Y-157940000D01*
X121440000Y-157940000D02*
X126520000Y-157940000D01*
X124110000Y-117170000D02*
X121440000Y-117170000D01*
X124110000Y-119710000D02*
X121440000Y-119710000D01*
X124110000Y-119710000D02*
X124110000Y-117170000D01*
X124110000Y-119710000D02*
X124110000Y-155270000D01*
X124110000Y-155270000D02*
X121440000Y-155270000D01*
X126520000Y-150060000D02*
X134400000Y-150060000D01*
X126520000Y-160480000D02*
X126520000Y-150060000D01*
X134400000Y-150060000D02*
X134400000Y-160480000D01*
X134400000Y-160480000D02*
X126520000Y-160480000D01*
X136810000Y-117170000D02*
X136810000Y-155270000D01*
X136810000Y-117170000D02*
X139480000Y-117170000D01*
X136810000Y-155270000D02*
X139480000Y-155270000D01*
X139480000Y-114500000D02*
X121440000Y-114500000D01*
X139480000Y-157940000D02*
X134400000Y-157940000D01*
X139480000Y-157940000D02*
X139480000Y-114500000D01*
%TO.C,SW10*%
X62595000Y-141555000D02*
X76565000Y-141555000D01*
X62595000Y-155525000D02*
X62595000Y-141555000D01*
X76565000Y-141555000D02*
X76565000Y-155525000D01*
X76565000Y-155525000D02*
X62595000Y-155525000D01*
%TO.C,SW1*%
X62595000Y-84555000D02*
X76565000Y-84555000D01*
X62595000Y-98525000D02*
X62595000Y-84555000D01*
X76565000Y-84555000D02*
X76565000Y-98525000D01*
X76565000Y-98525000D02*
X62595000Y-98525000D01*
%TO.C,U2*%
D14*
X89080000Y-72040000D02*
X89080000Y-60040000D01*
X91080000Y-58040000D02*
X109080000Y-58040000D01*
X109080000Y-74040000D02*
X91080000Y-74040000D01*
X111080000Y-60040000D02*
X111080000Y-72040000D01*
X89080000Y-60040000D02*
G75*
G02*
X91080000Y-58040000I1999999J1D01*
G01*
X91080000Y-74040000D02*
G75*
G02*
X89080000Y-72040000I-1J1999999D01*
G01*
X109080000Y-58040000D02*
G75*
G02*
X111080000Y-60040000I0J-2000000D01*
G01*
X111080000Y-72040000D02*
G75*
G02*
X109080000Y-74040000I-2000000J0D01*
G01*
D10*
X95150000Y-57340000D02*
G75*
G02*
X94950000Y-57340000I-100000J0D01*
G01*
X94950000Y-57340000D02*
G75*
G02*
X95150000Y-57340000I100000J0D01*
G01*
%TO.C,U1*%
D14*
X60355000Y-53240000D02*
X86355000Y-53240000D01*
X60355000Y-79240000D02*
X60355000Y-53240000D01*
X66355000Y-77240000D02*
X66355000Y-79240000D01*
X66355000Y-79240000D02*
X60355000Y-79240000D01*
X80355000Y-77240000D02*
X66355000Y-77240000D01*
X80355000Y-79240000D02*
X80355000Y-77240000D01*
X86355000Y-53240000D02*
X86355000Y-79240000D01*
X86355000Y-79240000D02*
X80355000Y-79240000D01*
D10*
X69455000Y-52740000D02*
G75*
G02*
X69255000Y-52740000I-100000J0D01*
G01*
X69255000Y-52740000D02*
G75*
G02*
X69455000Y-52740000I100000J0D01*
G01*
%TO.C,SW5*%
D13*
X81595000Y-103555000D02*
X95565000Y-103555000D01*
X81595000Y-117525000D02*
X81595000Y-103555000D01*
X95565000Y-103555000D02*
X95565000Y-117525000D01*
X95565000Y-117525000D02*
X81595000Y-117525000D01*
%TO.C,U3*%
D14*
X120340000Y-76590000D02*
X140660000Y-76590000D01*
X120340000Y-96910000D02*
X120340000Y-76590000D01*
X140660000Y-76590000D02*
X140660000Y-96910000D01*
X140660000Y-96910000D02*
X120340000Y-96910000D01*
D10*
X121710000Y-97550000D02*
G75*
G02*
X121510000Y-97550000I-100000J0D01*
G01*
X121510000Y-97550000D02*
G75*
G02*
X121710000Y-97550000I100000J0D01*
G01*
%TO.C,SW2*%
D13*
X81595000Y-84555000D02*
X95565000Y-84555000D01*
X81595000Y-98525000D02*
X81595000Y-84555000D01*
X95565000Y-84555000D02*
X95565000Y-98525000D01*
X95565000Y-98525000D02*
X81595000Y-98525000D01*
%TO.C,R2*%
X122155000Y-87627064D02*
X122155000Y-86172936D01*
X123975000Y-87627064D02*
X123975000Y-86172936D01*
%TO.C,D1*%
X123745000Y-109715000D02*
X123745000Y-111985000D01*
X123745000Y-111985000D02*
X127630000Y-111985000D01*
X127630000Y-109715000D02*
X123745000Y-109715000D01*
%TO.C,R1*%
X128590000Y-111577064D02*
X128590000Y-110122936D01*
X130410000Y-111577064D02*
X130410000Y-110122936D01*
%TD*%
M02*
